<?xml version="1.0" encoding="UTF-8"?>
<svg width="99px" height="145px" viewBox="0 0 99 145" version="1.1" xmlns="http://www.w3.org/2000/svg" xmlns:xlink="http://www.w3.org/1999/xlink">
    <title>figma</title>
    <g id="portfolio" stroke="none" stroke-width="1" fill="none" fill-rule="evenodd">
        <g id="Artboard" transform="translate(-437.000000, -621.000000)" fill="#00FFCA" fill-rule="nonzero">
            <g id="figma" transform="translate(437.000000, 621.000000)">
                <path d="M26.296875,0 C11.8104525,0 0,11.7774566 0,26.2234043 C0,36.4051562 6.03258666,45.0205101 14.5684192,49.3617021 C6.03258666,53.7028941 0,62.3182481 0,72.5 C0,82.6817519 6.03258666,91.2971059 14.5684192,95.6382979 C6.03258666,99.9794899 0,108.594844 0,118.776596 C0,133.222545 11.8104525,145 26.296875,145 C40.7832975,145 52.59375,133.222545 52.59375,118.776596 L52.59375,95.6382979 L52.59375,85.3224734 C56.7436042,93.1755099 64.7585792,98.7234043 74.25,98.7234043 C87.8824114,98.7234043 99,87.6368647 99,74.0425532 C99,62.8690568 91.3465977,53.7693473 81.1021736,50.7475905 C91.4313201,47.2073939 99,37.7006911 99,26.2234043 C99,11.7774566 87.1895475,0 72.703125,0 L49.5,0 L26.296875,0 Z M26.296875,6.17021277 L46.40625,6.17021277 L46.40625,46.2765957 L26.296875,46.2765957 C15.1546725,46.2765957 6.1875,37.3344766 6.1875,26.2234043 C6.1875,15.1123307 15.1546725,6.17021277 26.296875,6.17021277 Z M52.59375,6.17021277 L72.703125,6.17021277 C83.8453275,6.17021277 92.8125,15.1123307 92.8125,26.2234043 C92.8125,37.3344766 83.8453275,46.2765957 72.703125,46.2765957 L52.59375,46.2765957 L52.59375,6.17021277 Z M26.296875,52.4468085 L46.40625,52.4468085 L46.40625,92.5531915 L26.296875,92.5531915 C15.1546725,92.5531915 6.1875,83.6110723 6.1875,72.5 C6.1875,61.3889277 15.1546725,52.4468085 26.296875,52.4468085 Z M52.59375,52.4468085 L62.9384766,52.4468085 C58.4992207,54.7795994 54.9330767,58.3357768 52.59375,62.762633 L52.59375,52.4468085 Z M74.25,55.5319149 C84.5384389,55.5319149 92.8125,63.7828653 92.8125,74.0425532 C92.8125,84.3022411 84.5384389,92.5531915 74.25,92.5531915 C63.9615611,92.5531915 55.6875,84.3022411 55.6875,74.0425532 C55.6875,63.7828653 63.9615611,55.5319149 74.25,55.5319149 Z M26.296875,98.7234043 L46.40625,98.7234043 L46.40625,118.776596 C46.40625,129.887668 37.4390775,138.829787 26.296875,138.829787 C15.1546725,138.829787 6.1875,129.887668 6.1875,118.776596 C6.1875,107.665523 15.1546725,98.7234043 26.296875,98.7234043 Z" id="Shape"></path>
            </g>
        </g>
    </g>
</svg>