<?xml version="1.0" encoding="UTF-8"?>
<svg width="150px" height="145px" viewBox="0 0 150 145" version="1.1" xmlns="http://www.w3.org/2000/svg" xmlns:xlink="http://www.w3.org/1999/xlink">
    <title>github</title>
    <g id="portfolio" stroke="none" stroke-width="1" fill="none" fill-rule="evenodd">
        <g id="Artboard" transform="translate(-1514.000000, -621.000000)" fill="#00FFCA" fill-rule="nonzero">
            <g id="github" transform="translate(1514.000000, 621.000000)">
                <path d="M66.581,0.517628703 C32.010964,4.25689497 4.20463066,31.9274654 0.447018046,65.5808618 C-3.31059457,100.729965 16.9805135,132.139801 47.792937,144.105454 C50.0475045,144.853307 52.3020721,143.3576 52.3020721,140.366187 L52.3020721,128.400535 C52.3020721,128.400535 49.295982,129.148388 45.5383694,129.148388 C35.0170541,129.148388 30.5079189,120.174149 29.7563964,114.939177 C29.0048739,111.947764 27.5018289,109.704204 25.2472613,107.460644 C22.9926937,106.712791 22.2411712,106.712791 22.2411712,105.964938 C22.2411712,104.469231 24.4957388,104.469231 25.2472613,104.469231 C29.7563964,104.469231 33.514009,109.704204 35.0170541,111.947764 C38.7746667,117.93059 43.2838018,119.426296 45.5383694,119.426296 C48.5444595,119.426296 50.799027,118.678443 52.3020721,117.93059 C53.0535946,112.695617 55.3081622,107.460644 59.8172973,104.469231 C42.5322793,100.729965 29.7563964,91.0078725 29.7563964,74.5551009 C29.7563964,66.3287151 33.514009,58.1023293 38.7746667,52.1195032 C38.0231442,50.6237967 37.2716216,46.8845305 37.2716216,41.6495577 C37.2716216,38.6581447 37.2716216,34.1710251 39.5261892,29.6839056 C39.5261892,29.6839056 50.0475045,29.6839056 60.5688198,39.4059979 C64.3264324,37.9102914 69.5870901,37.1624382 74.8477478,37.1624382 C80.1084054,37.1624382 85.3690631,37.9102914 89.8781982,39.4059979 C99.647991,29.6839056 110.920829,29.6839056 110.920829,29.6839056 C112.423874,34.1710251 112.423874,38.6581447 112.423874,41.6495577 C112.423874,47.6323837 111.672351,50.6237967 110.920829,52.1195032 C116.181486,58.1023293 119.939099,65.5808618 119.939099,74.5551009 C119.939099,91.0078725 107.163216,100.729965 89.8781982,104.469231 C94.3873333,108.208497 97.3934234,114.939177 97.3934234,121.669856 L97.3934234,141.114041 C97.3934234,143.3576 99.647991,145.60116 102.654081,144.853307 C130.460414,133.635508 150,106.712791 150,75.3029541 C150,30.4317589 111.672351,-4.71734408 66.581,0.517628703 Z" id="Path"></path>
            </g>
        </g>
    </g>
</svg>