<?xml version="1.0" encoding="UTF-8"?>
<svg width="107px" height="145px" viewBox="0 0 107 145" version="1.1" xmlns="http://www.w3.org/2000/svg" xmlns:xlink="http://www.w3.org/1999/xlink">
    <title>golang</title>
    <g id="portfolio" stroke="none" stroke-width="1" fill="none" fill-rule="evenodd">
        <g id="Artboard" transform="translate(-927.000000, -621.000000)" fill="#00FFCA" fill-rule="nonzero">
            <g id="golang" transform="translate(927.000000, 621.000000)">
                <path d="M53.5,0 C53.395369,0 53.2907475,0.00317109912 53.1865253,0.0124922089 C41.809445,0.0665244106 33.4225092,2.95403562 27.8810449,5.91664463 C23.4119662,8.30592814 22.0156389,9.97154429 21.0890718,10.9034679 C19.3864264,10.227251 17.7081675,9.45667348 15.7353983,9.45667348 C7.08253357,9.45667348 -7.10542736e-15,16.5505695 -7.10542736e-15,25.2174972 C-7.10542736e-15,31.6093592 3.94257657,36.9384657 9.44129799,39.3960825 L9.44129799,68.9660955 L1.38312853,77.0373615 C-0.461042844,78.8845301 -0.461042844,81.8762307 1.38312853,83.7233993 C2.30521422,84.6469836 3.51225554,85.1086275 4.72072279,85.1086275 C5.92919005,85.1086275 7.13623168,84.6469836 8.05831737,83.7233993 L8.6053628,83.1754648 C8.38288209,84.6069385 8.17642616,86.0276885 7.91694559,87.5220037 C7.12227137,92.098411 6.29424786,97.5421649 6.29424786,107.173781 C6.29424786,116.118118 10.5376233,125.39491 18.3661371,132.526544 L13.9713287,136.928492 C12.1271574,138.77566 12.1271574,141.767361 13.9713287,143.61453 C14.8934144,144.538114 16.1004561,145 17.3089233,145 C18.5173906,145 19.7275793,144.538114 20.6465179,143.61453 L26.1169754,138.135181 C33.3918978,142.31157 42.4943092,144.942171 53.2234025,144.987445 C53.2418246,144.989661 53.260266,144.991713 53.2787245,144.993602 C53.3542694,144.993857 53.4242976,145 53.5,145 C53.6066796,145 53.7133575,144.996973 53.8196205,144.987445 C64.5297088,144.935227 73.6178766,142.305912 80.8830243,138.135181 L86.3534818,143.61453 C87.2724204,144.538114 88.4826091,145 89.6910764,145 C90.8995436,145 92.1065852,144.538114 93.0286709,143.61453 C94.8728423,141.767361 94.8728423,138.77566 93.0286709,136.928492 L88.6277164,132.520388 C96.4532059,125.389318 100.705752,116.116176 100.705752,107.173781 C100.705752,97.5421649 99.8777283,92.098411 99.0830541,87.5220037 C98.8235735,86.0276885 98.6171176,84.6069385 98.3946369,83.1754648 L98.9416823,83.7233993 C99.863768,84.6469836 101.07081,85.1086275 102.279277,85.1086275 C103.487744,85.1086275 104.694786,84.6469836 105.616871,83.7233993 C107.461043,81.8762307 107.461043,78.8845301 105.616871,77.0373615 L97.5587017,68.9660955 L97.5587017,39.3960825 C103.057423,36.9384657 107,31.6093592 107,25.2174972 C107,16.5505695 99.9174661,9.45667348 91.2646014,9.45667348 C89.2918321,9.45667348 87.6135732,10.227251 85.9109279,10.9034679 C84.9843608,9.97154429 83.5880335,8.30592814 79.1189548,5.91664463 C73.5620699,2.94579239 65.146754,0.044620333 53.7212752,0.00633571596 C53.6476117,0.00168537397 53.5738076,0 53.5,0 Z M53.4999998,6.30450873 C63.9874689,6.30450873 71.3790431,8.92198344 76.1563029,11.476029 C80.9335628,14.0300746 82.8929571,16.3212511 82.8929571,16.3212511 C83.8786015,17.4448176 85.5167978,17.7200086 86.8144774,16.9800044 C88.1746923,16.2035411 89.6531041,15.761003 91.2646014,15.761003 C96.5154042,15.761003 100.705752,19.9581611 100.705752,25.2174972 C100.705752,29.6467426 97.6941916,33.295616 93.624889,34.347692 C92.2371149,34.7067091 91.2667893,35.9595525 91.2646014,37.3951954 L91.2646014,72.4999685 C91.2646014,79.8273583 92.1084483,84.120282 92.8872992,88.6055603 C93.66615,93.0908386 94.4116516,97.8924082 94.4116516,107.173781 C94.4116516,121.271333 80.4534363,138.695428 53.4999998,138.695428 C26.5465634,138.695428 12.5883481,121.271333 12.5883481,107.173781 C12.5883481,97.8924082 13.3338497,93.0908386 14.1127005,88.6055603 C14.8915514,84.120282 15.7353983,79.8273583 15.7353983,72.4999685 L15.7353983,37.3951954 C15.7332104,35.9595525 14.7628847,34.7067091 13.3751107,34.347692 C9.30580804,33.295616 6.29424786,29.6467426 6.29424786,25.2174972 C6.29424786,19.9581611 10.4845955,15.761003 15.7353983,15.761003 C17.3468956,15.761003 18.8253137,16.2035414 20.1855223,16.9800044 C21.4832019,17.7200086 23.1213982,17.4448176 24.1070425,16.3212511 C24.1070425,16.3212511 26.0664369,14.0300746 30.8436967,11.476029 C35.6209566,8.92198344 43.0125308,6.30450873 53.4999998,6.30450873 Z M36.1912241,18.9131677 C28.4071939,18.9131677 22.0294985,25.3012282 22.0294985,33.0979091 C22.0294985,40.8945901 28.4071939,47.2826505 36.1912241,47.2826505 C43.9752544,47.2826505 50.3529497,40.8945901 50.3529497,33.0979091 C50.3529497,25.3012282 43.9752544,18.9131677 36.1912241,18.9131677 Z M70.8026294,18.9193242 C63.0203363,18.9193242 56.64705,25.3029682 56.64705,33.0979091 C56.64705,40.8928501 63.0203363,47.2764943 70.8026294,47.2764943 C78.5849193,47.2764943 84.964355,40.8928469 84.964355,33.0979091 C84.964355,25.3029713 78.5849193,18.9193242 70.8026294,18.9193242 Z M15.7353983,22.0653325 C13.9982266,22.0653325 12.5883481,23.4775023 12.5883481,25.2174972 C12.5883481,26.9574922 13.9982266,28.369662 15.7353983,28.369662 C15.9493977,28.369662 16.1363513,28.2875071 16.3377625,28.2465321 C16.7594673,26.5222949 17.3786494,24.8715472 18.2063236,23.3458994 C17.6304134,22.5862277 16.7613366,22.0653325 15.7353983,22.0653325 Z M91.2646014,22.0653325 C90.2386631,22.0653325 89.3695863,22.5862277 88.7936761,23.3458994 C89.6213503,24.8715472 90.2405324,26.5222949 90.6622372,28.2465321 C90.8636484,28.2875071 91.050602,28.369662 91.2646014,28.369662 C93.0017731,28.369662 94.4116516,26.9574922 94.4116516,25.2174972 C94.4116516,23.4775023 93.0017731,22.0653325 91.2646014,22.0653325 Z M36.1912241,25.2174972 C40.5736708,25.2174972 44.0588494,28.70834 44.0588494,33.0979091 C44.0588494,37.4874782 40.5736708,40.978321 36.1912241,40.978321 C33.596733,40.978321 31.3379693,39.7352901 29.9094162,37.8261563 C32.5117162,37.8193688 34.6177079,35.7044472 34.617699,33.0979091 C34.6177079,30.4913711 32.5117162,28.3764494 29.9094162,28.369662 C31.3379693,26.4605282 33.596733,25.2174972 36.1912241,25.2174972 Z M70.8026294,25.2236534 C75.1833358,25.2236534 78.6702547,28.7100832 78.6702547,33.0979091 C78.6702547,37.4857351 75.1833358,40.9721648 70.8026294,40.9721648 C68.2095419,40.9721648 65.9541297,39.7331907 64.5269677,37.8261563 C67.1292676,37.8193688 69.2352593,35.7044472 69.2352505,33.0979091 C69.2352593,30.4913711 67.1292676,28.3764494 64.5269677,28.369662 C65.9541297,26.4626275 68.2095419,25.2236534 70.8026294,25.2236534 Z M53.4999998,44.1304858 C49.0407594,44.1318845 45.1910331,46.2164776 44.2678325,49.1296236 C43.3182951,49.7164621 42.4184559,50.3786626 41.6370968,51.1612915 C39.3723694,53.4296996 37.7647492,56.4764654 37.7647492,59.8913095 C37.7647492,60.6793507 37.9461452,63.8419617 40.4139265,66.0047849 C41.960966,67.3606476 44.1902231,68.2773318 47.2058996,68.8121816 L47.2058996,72.4999685 C47.1898487,73.6367524 47.7861379,74.6941317 48.7664363,75.2672153 C49.7467347,75.8402989 50.9591647,75.8402989 51.9394631,75.2672153 C52.9197615,74.6941317 53.5160507,73.6367524 53.4999998,72.4999685 C53.483949,73.6367524 54.0802381,74.6941317 55.0605366,75.2672153 C56.040835,75.8402989 57.253265,75.8402989 58.2335634,75.2672153 C59.2138618,74.6941317 59.810151,73.6367524 59.7941001,72.4999685 L59.7941001,68.8121816 C62.8097766,68.2773318 65.0390337,67.3606476 66.5860731,66.0047849 C69.0538608,63.8419617 69.2352505,60.6793507 69.2352505,59.8913095 C69.2352505,56.4764654 67.6276303,53.4296996 65.3629029,51.1612915 C64.5803039,50.3774206 63.6773051,49.7170201 62.726021,49.1296236 C61.8032998,46.2179826 57.9569337,44.1338215 53.4999998,44.1304858 L53.4999998,44.1304858 Z M46.9047174,54.9352681 C48.6657782,56.0888418 51.0330672,56.7363194 53.4999998,56.7391448 C55.9677583,56.7390372 58.3373661,56.0937397 60.1014284,54.9414274 C60.3802445,55.1519006 60.6596742,55.3651351 60.9127789,55.6186479 C62.1884828,56.8964252 62.9411502,58.5779065 62.9411502,59.8913095 C62.9411502,60.6793507 63.1225462,60.6689044 62.4432775,61.2642254 C61.764015,61.8595464 59.4007188,63.0434743 53.4999998,63.0434743 C47.5992808,63.0434743 45.2359847,61.8595464 44.5567222,61.2642254 C43.8774598,60.6689044 44.0588494,60.6793507 44.0588494,59.8913095 C44.0588494,58.5779065 44.8115168,56.8964252 46.0872208,55.6186479 C46.3423994,55.3630578 46.623453,55.1470967 46.9047174,54.9352681 Z" id="Shape"></path>
            </g>
        </g>
    </g>
</svg>