<?xml version="1.0" encoding="UTF-8"?>
<svg width="1242px" height="712px" viewBox="0 0 1242 712" version="1.1" xmlns="http://www.w3.org/2000/svg" xmlns:xlink="http://www.w3.org/1999/xlink">
    <title>icons</title>
    <g id="portfolio" stroke="none" stroke-width="1" fill="none" fill-rule="evenodd">
        <g id="Desktop-HD" transform="translate(-81.000000, -203.000000)" fill="#00FFCA" fill-rule="nonzero">
            <g id="icons" transform="translate(81.000000, 203.000000)">
                <g id="react-copy" transform="translate(0.000000, 39.000000)">
                    <path d="M117.5,155 C51.5978261,155 0,132.78 0,104.5 C0,76.22 51.5978261,54 117.5,54 C183.402174,54 235,76.22 235,104.5 C235,132.78 183.402174,155 117.5,155 Z M117.5,64.1 C53.1304348,64.1 10.2173913,84.805 10.2173913,104.5 C10.2173913,124.195 53.1304348,144.9 117.5,144.9 C181.869565,144.9 224.782609,124.195 224.782609,104.5 C224.782609,84.805 181.869565,64.1 117.5,64.1 Z" id="Shape"></path>
                    <path d="M71.6002546,210 C66.4712251,210 62.3680014,208.988939 58.2647778,206.461285 C33.1325329,192.306427 39.8002714,137.203586 72.6260605,80.5841521 L72.6260605,80.5841521 C88.0131492,54.2965579 106.990559,32.0532091 125.455065,17.8983507 C145.45828,2.73243104 163.409884,-1.81734487 175.719555,5.26008432 C188.542129,12.3375135 193.158255,30.0310865 190.080837,54.8020886 C187.00342,78.0564988 176.745361,105.355154 161.358272,131.642748 C145.971183,157.930342 126.993774,180.173691 108.529267,194.32855 C95.1937906,204.439163 82.3712167,210 71.6002546,210 Z M162.896981,11.8319828 C154.690533,11.8319828 143.919571,16.3817587 132.122803,25.4813106 C114.684103,39.1306383 96.7324995,60.3629258 81.8583137,85.6394586 L81.8583137,85.6394586 C49.5454275,140.7423 46.4680098,188.262182 63.3938073,197.867264 C72.1131576,202.922571 86.4744403,198.372795 102.374432,186.240059 C119.813132,172.590731 137.764736,151.358444 152.638922,126.081911 C167.513107,100.805378 177.258264,75.0233148 180.335681,53.2854966 C182.900196,33.0642704 179.822778,18.909412 171.103428,13.8541055 C168.538913,12.8430442 165.974398,11.8319828 162.896981,11.8319828 Z" id="Shape"></path>
                    <path d="M162.827017,210 C137.29855,210 100.537558,178.869155 72.9668141,130.38669 C39.7798073,73.2284166 33.1424059,17.6011681 58.1603034,3.31159966 L58.1603034,3.31159966 C83.1782008,-10.9779688 128.108302,22.1942436 161.295309,79.3525173 C176.612389,105.890287 186.823776,133.448741 189.887192,156.92446 C193.461177,181.931205 188.355484,199.282824 175.591251,206.93795 C171.506696,208.979317 167.422141,210 162.827017,210 Z M63.2659967,11.9874091 C46.4172086,21.6839019 49.4806246,69.6560245 81.6464928,125.283273 C113.812361,180.910521 153.636769,207.448291 170.485557,197.751798 C179.165236,192.648381 182.228652,178.358813 179.675805,157.945144 C176.612389,136.000449 166.911572,109.973021 152.105061,84.4559346 C119.939193,28.8286861 80.1147848,2.2909162 63.2659967,11.9874091 L63.2659967,11.9874091 Z" id="Shape"></path>
                    <circle id="Oval" cx="117" cy="105" r="21"></circle>
                </g>
                <g id="insta-copy" transform="translate(326.000000, 484.000000)">
                    <path d="M39.9886364,0 C18.0383538,0 0,18.0142076 0,39.9886364 L0,96.0113636 C0,117.961646 18.0142076,136 39.9886364,136 L96.0113636,136 C117.961646,136 136,117.985799 136,96.0113636 L136,39.9886364 C136,18.0383538 117.985799,0 96.0113636,0 L39.9886364,0 Z M39.9886364,12.3636364 L96.0113636,12.3636364 C111.296873,12.3636364 123.636364,24.7031265 123.636364,39.9886364 L123.636364,96.0113636 C123.636364,111.296873 111.296873,123.636364 96.0113636,123.636364 L39.9886364,123.636364 C24.7031265,123.636364 12.3636364,111.296873 12.3636364,96.0113636 L12.3636364,39.9886364 C12.3636364,24.7031265 24.7031265,12.3636364 39.9886364,12.3636364 Z M104.511364,25.8863636 C101.396308,25.8863636 98.9090909,28.3735811 98.9090909,31.4886364 C98.9090909,34.6036916 101.396308,37.0909091 104.511364,37.0909091 C107.626419,37.0909091 110.113636,34.6036916 110.113636,31.4886364 C110.113636,28.3735811 107.626419,25.8863636 104.511364,25.8863636 Z M68,30.9090909 C47.595172,30.9090909 30.9090909,47.595172 30.9090909,68 C30.9090909,88.404828 47.595172,105.090909 68,105.090909 C88.404828,105.090909 105.090909,88.404828 105.090909,68 C105.090909,47.595172 88.404828,30.9090909 68,30.9090909 Z M68,43.2727273 C81.7400553,43.2727273 92.7272727,54.2599447 92.7272727,68 C92.7272727,81.7400553 81.7400553,92.7272727 68,92.7272727 C54.2599447,92.7272727 43.2727273,81.7400553 43.2727273,68 C43.2727273,54.2599447 54.2599447,43.2727273 68,43.2727273 Z" id="Shape"></path>
                </g>
                <g id="figma-copy" transform="translate(49.000000, 394.000000)">
                    <path d="M26.296875,0 C11.8104525,0 0,11.7774566 0,26.2234043 C0,36.4051562 6.03258666,45.0205101 14.5684192,49.3617021 C6.03258666,53.7028941 0,62.3182481 0,72.5 C0,82.6817519 6.03258666,91.2971059 14.5684192,95.6382979 C6.03258666,99.9794899 0,108.594844 0,118.776596 C0,133.222545 11.8104525,145 26.296875,145 C40.7832975,145 52.59375,133.222545 52.59375,118.776596 L52.59375,95.6382979 L52.59375,85.3224734 C56.7436042,93.1755099 64.7585792,98.7234043 74.25,98.7234043 C87.8824114,98.7234043 99,87.6368647 99,74.0425532 C99,62.8690568 91.3465977,53.7693473 81.1021736,50.7475905 C91.4313201,47.2073939 99,37.7006911 99,26.2234043 C99,11.7774566 87.1895475,0 72.703125,0 L49.5,0 L26.296875,0 Z M26.296875,6.17021277 L46.40625,6.17021277 L46.40625,46.2765957 L26.296875,46.2765957 C15.1546725,46.2765957 6.1875,37.3344766 6.1875,26.2234043 C6.1875,15.1123307 15.1546725,6.17021277 26.296875,6.17021277 Z M52.59375,6.17021277 L72.703125,6.17021277 C83.8453275,6.17021277 92.8125,15.1123307 92.8125,26.2234043 C92.8125,37.3344766 83.8453275,46.2765957 72.703125,46.2765957 L52.59375,46.2765957 L52.59375,6.17021277 Z M26.296875,52.4468085 L46.40625,52.4468085 L46.40625,92.5531915 L26.296875,92.5531915 C15.1546725,92.5531915 6.1875,83.6110723 6.1875,72.5 C6.1875,61.3889277 15.1546725,52.4468085 26.296875,52.4468085 Z M52.59375,52.4468085 L62.9384766,52.4468085 C58.4992207,54.7795994 54.9330767,58.3357768 52.59375,62.762633 L52.59375,52.4468085 Z M74.25,55.5319149 C84.5384389,55.5319149 92.8125,63.7828653 92.8125,74.0425532 C92.8125,84.3022411 84.5384389,92.5531915 74.25,92.5531915 C63.9615611,92.5531915 55.6875,84.3022411 55.6875,74.0425532 C55.6875,63.7828653 63.9615611,55.5319149 74.25,55.5319149 Z M26.296875,98.7234043 L46.40625,98.7234043 L46.40625,118.776596 C46.40625,129.887668 37.4390775,138.829787 26.296875,138.829787 C15.1546725,138.829787 6.1875,129.887668 6.1875,118.776596 C6.1875,107.665523 15.1546725,98.7234043 26.296875,98.7234043 Z" id="Shape"></path>
                </g>
                <g id="nodejs-copy" transform="translate(326.000000, 72.000000)">
                    <path d="M82.0120635,34.3609774 L58.4274756,47.2564215 C57.5431136,47.7361415 57,48.6290857 57,49.5932754 L57,75.3984126 C57,76.3626023 57.5431136,77.2507968 58.4274756,77.7352665 L82.0168698,90.64021 C82.8964255,91.11993 83.987459,91.11993 84.8670147,90.64021 L108.451603,77.7352665 C109.326352,77.2507968 109.869466,76.3626023 109.869466,75.3984126 L109.869466,49.5932754 C109.869466,48.6290857 109.326352,47.7408912 108.44199,47.2564215 L84.8622084,34.3609774 C84.4200274,34.1187426 83.9249769,34 83.4347328,34 C82.9396823,34 82.4494382,34.1187426 82.0072572,34.3609774 M203.3571,57.5917755 L199.425534,59.7386413 C199.276538,59.8193863 199.190025,59.9666271 199.190025,60.128117 L199.190025,64.431348 C199.190025,64.5928379 199.281344,64.7400787 199.425534,64.8208237 L203.3571,66.9724392 C203.506095,67.0531842 203.683929,67.0531842 203.832925,66.9724392 L207.764491,64.8208237 C207.90868,64.7400787 208,64.5928379 208,64.431348 L208,60.128117 C208,59.9666271 207.90868,59.8193863 207.759684,59.7386413 L203.828119,57.5917755 C203.756024,57.5490282 203.674316,57.5300294 203.592609,57.5300294 C203.510902,57.5300294 203.429194,57.5490282 203.3571,57.5917755" id="Shape"></path>
                    <path d="M171.800273,6.53189417 L160.289636,0.147363596 C159.928273,-0.053799408 159.485,-0.0490098127 159.128455,0.161732382 C158.771909,0.372474576 158.550273,0.750852607 158.550273,1.16275781 L158.545455,39.7285794 L147.931,33.8900627 C147.487727,33.6457933 146.991455,33.5260534 146.5,33.5260534 C146.008545,33.5260534 145.512273,33.6457933 145.069,33.8900627 L145.073818,33.8900627 L121.431,46.893814 C120.544455,47.3775631 120,48.2780071 120,49.2455053 L120,75.2673767 C120,76.2396646 120.544455,77.1353189 121.431,77.6238576 L145.078636,90.6371882 C145.960364,91.1209373 147.054091,91.1209373 147.935818,90.6371882 L171.578636,77.6238576 C172.455545,77.1401085 173,76.2396646 173,75.2673767 L173,8.56268259 C173,7.71971381 172.537455,6.94379937 171.800273,6.53189417 Z M157.899818,69.2468554 L147.155273,75.1620056 C146.755364,75.382327 146.259091,75.382327 145.859182,75.1620056 L135.109818,69.2468554 C134.700273,69.026534 134.454545,68.6146288 134.454545,68.1739861 L134.454545,56.3436856 C134.454545,55.9030428 134.700273,55.4959272 135.105,55.2708162 L145.854364,49.3604556 L145.849545,49.3604556 C146.051909,49.2502949 146.273545,49.1976094 146.5,49.1976094 C146.726455,49.1976094 146.948091,49.2550845 147.150455,49.3604556 L157.895,55.2708162 C158.299727,55.4959272 158.545455,55.9078324 158.545455,56.3484752 L158.545455,68.1787757 C158.545455,68.6146288 158.299727,69.026534 157.899818,69.2468554 Z" id="Shape"></path>
                    <path d="M82.0738182,34.3609774 L57,75.3984126 C57,76.3626023 57.5444545,77.2507968 58.431,77.7352665 L82.0786364,90.64021 C82.9603636,91.11993 84.0540909,91.11993 84.9358182,90.64021 L110,49.5932754 C110,48.6290857 109.455545,47.7408912 108.569,47.2564215 L84.931,34.3609774 C84.4877273,34.1187426 83.9914545,34 83.5,34 C83.0037273,34 82.5122727,34.1187426 82.069,34.3609774" id="Path"></path>
                    <path d="M82.0738182,34.3609774 L58.431,47.2564215 C57.5444545,47.7361415 57,48.6290857 57,49.5932754 L82.0738182,90.64021 C82.9555455,91.11993 84.0492727,91.11993 84.931,90.64021 L108.573818,77.7352665 C109.455545,77.2507968 110,76.3626023 110,75.3984126 L84.931,34.3609774 C84.4877273,34.1187426 83.9914545,34 83.5,34 C83.0037273,34 82.5122727,34.1187426 82.069,34.3609774" id="Path"></path>
                    <path d="M228.576875,47.2555931 L205.068958,34.3609549 C204.628125,34.1187352 204.134583,34 203.645833,34 C203.157083,34 202.663542,34.1187352 202.222708,34.3609549 L202.2275,34.3609549 L178.714792,47.2555931 C177.837917,47.7352831 177.291667,48.6471691 177.291667,49.6445444 L177.291667,75.3435821 C177.291667,76.336208 177.837917,77.2528434 178.714792,77.7325334 L202.232292,90.6366704 C203.113958,91.1211099 204.192083,91.1211099 205.07375,90.6366704 L215.917292,84.6856643 C216.909167,84.1394826 216.904375,82.7289089 215.907708,82.1874766 L192.313542,69.4258218 C191.915833,69.2025997 191.666667,68.7894013 191.666667,68.3429571 L191.666667,56.6309211 C191.666667,56.1939758 191.90625,55.7902762 192.289583,55.5813023 L202.998958,49.7110361 L202.994167,49.7110361 C203.195417,49.6017998 203.415833,49.5495563 203.641042,49.5495563 C203.86625,49.5495563 204.086667,49.6065492 204.287917,49.7110361 L214.997292,55.5860517 C215.380625,55.7950256 215.620208,56.1987252 215.620208,56.6356705 L215.620208,66.1914761 C215.620208,66.599925 215.840625,66.9798775 216.2,67.184102 C216.559375,67.3835771 217.000208,67.3835771 217.359583,67.1793526 L228.85,60.5634296 C229.559167,60.1549806 230,59.399825 230,58.5829271 L230,49.6540432 C230,48.6519185 229.45375,47.7352831 228.576875,47.2555931 Z M51.2852083,47.2555931 L27.7772917,34.3609549 C27.3364583,34.1187352 26.8429167,34 26.3541667,34 C25.8654167,34 25.371875,34.1187352 24.9310417,34.3609549 L24.9358333,34.3609549 L1.423125,47.2555931 C0.54625,47.7352831 0,48.6471691 0,49.6445444 L0,85.0988626 C0,85.5073116 0.220416667,85.8872641 0.579791667,86.0914886 C0.939166667,86.2909636 1.38,86.2909636 1.739375,86.0867392 L13.2297917,79.4708161 C13.9389583,79.0623672 14.375,78.3072116 14.375,77.4903137 L14.375,56.6261717 C14.375,56.1892263 14.6145833,55.7855268 14.9979167,55.5765529 L25.7072917,49.7062867 L25.7072917,49.7062867 C25.9085417,49.5970504 26.1289583,49.5448069 26.3541667,49.5448069 C26.579375,49.5448069 26.7997917,49.6017998 27.0010417,49.7062867 L37.7104167,55.5813023 C38.09375,55.7902762 38.3333333,56.1939758 38.3333333,56.6309211 L38.3333333,77.4950631 C38.3333333,78.311961 38.769375,79.0671166 39.4833333,79.4755656 L50.97375,86.0914886 C51.333125,86.295713 51.7739583,86.295713 52.1333333,86.096238 C52.4879167,85.8872641 52.7083333,85.5073116 52.7083333,85.0988626 L52.7083333,49.6492938 C52.7083333,48.6519185 52.1620833,47.7352831 51.2852083,47.2555931 Z" id="Shape"></path>
                </g>
                <g id="golang-copy" transform="translate(640.000000, 539.000000)">
                    <path d="M53.5,0 C53.395369,0 53.2907475,0.00317109912 53.1865253,0.0124922089 C41.809445,0.0665244106 33.4225092,2.95403562 27.8810449,5.91664463 C23.4119662,8.30592814 22.0156389,9.97154429 21.0890718,10.9034679 C19.3864264,10.227251 17.7081675,9.45667348 15.7353983,9.45667348 C7.08253357,9.45667348 0,16.5505695 0,25.2174972 C0,31.6093592 3.94257657,36.9384657 9.44129799,39.3960825 L9.44129799,68.9660955 L1.38312853,77.0373615 C-0.461042844,78.8845301 -0.461042844,81.8762307 1.38312853,83.7233993 C2.30521422,84.6469836 3.51225554,85.1086275 4.72072279,85.1086275 C5.92919005,85.1086275 7.13623168,84.6469836 8.05831737,83.7233993 L8.6053628,83.1754648 C8.38288209,84.6069385 8.17642616,86.0276885 7.91694559,87.5220037 C7.12227137,92.098411 6.29424786,97.5421649 6.29424786,107.173781 C6.29424786,116.118118 10.5376233,125.39491 18.3661371,132.526544 L13.9713287,136.928492 C12.1271574,138.77566 12.1271574,141.767361 13.9713287,143.61453 C14.8934144,144.538114 16.1004561,145 17.3089233,145 C18.5173906,145 19.7275793,144.538114 20.6465179,143.61453 L26.1169754,138.135181 C33.3918978,142.31157 42.4943092,144.942171 53.2234025,144.987445 C53.2418246,144.989661 53.260266,144.991713 53.2787245,144.993602 C53.3542694,144.993857 53.4242976,145 53.5,145 C53.6066796,145 53.7133575,144.996973 53.8196205,144.987445 C64.5297088,144.935227 73.6178766,142.305912 80.8830243,138.135181 L86.3534818,143.61453 C87.2724204,144.538114 88.4826091,145 89.6910764,145 C90.8995436,145 92.1065852,144.538114 93.0286709,143.61453 C94.8728423,141.767361 94.8728423,138.77566 93.0286709,136.928492 L88.6277164,132.520388 C96.4532059,125.389318 100.705752,116.116176 100.705752,107.173781 C100.705752,97.5421649 99.8777283,92.098411 99.0830541,87.5220037 C98.8235735,86.0276885 98.6171176,84.6069385 98.3946369,83.1754648 L98.9416823,83.7233993 C99.863768,84.6469836 101.07081,85.1086275 102.279277,85.1086275 C103.487744,85.1086275 104.694786,84.6469836 105.616871,83.7233993 C107.461043,81.8762307 107.461043,78.8845301 105.616871,77.0373615 L97.5587017,68.9660955 L97.5587017,39.3960825 C103.057423,36.9384657 107,31.6093592 107,25.2174972 C107,16.5505695 99.9174661,9.45667348 91.2646014,9.45667348 C89.2918321,9.45667348 87.6135732,10.227251 85.9109279,10.9034679 C84.9843608,9.97154429 83.5880335,8.30592814 79.1189548,5.91664463 C73.5620699,2.94579239 65.146754,0.044620333 53.7212752,0.00633571596 C53.6476117,0.00168537397 53.5738076,0 53.5,0 Z M53.4999998,6.30450873 C63.9874689,6.30450873 71.3790431,8.92198344 76.1563029,11.476029 C80.9335628,14.0300746 82.8929571,16.3212511 82.8929571,16.3212511 C83.8786015,17.4448176 85.5167978,17.7200086 86.8144774,16.9800044 C88.1746923,16.2035411 89.6531041,15.761003 91.2646014,15.761003 C96.5154042,15.761003 100.705752,19.9581611 100.705752,25.2174972 C100.705752,29.6467426 97.6941916,33.295616 93.624889,34.347692 C92.2371149,34.7067091 91.2667893,35.9595525 91.2646014,37.3951954 L91.2646014,72.4999685 C91.2646014,79.8273583 92.1084483,84.120282 92.8872992,88.6055603 C93.66615,93.0908386 94.4116516,97.8924082 94.4116516,107.173781 C94.4116516,121.271333 80.4534363,138.695428 53.4999998,138.695428 C26.5465634,138.695428 12.5883481,121.271333 12.5883481,107.173781 C12.5883481,97.8924082 13.3338497,93.0908386 14.1127005,88.6055603 C14.8915514,84.120282 15.7353983,79.8273583 15.7353983,72.4999685 L15.7353983,37.3951954 C15.7332104,35.9595525 14.7628847,34.7067091 13.3751107,34.347692 C9.30580804,33.295616 6.29424786,29.6467426 6.29424786,25.2174972 C6.29424786,19.9581611 10.4845955,15.761003 15.7353983,15.761003 C17.3468956,15.761003 18.8253137,16.2035414 20.1855223,16.9800044 C21.4832019,17.7200086 23.1213982,17.4448176 24.1070425,16.3212511 C24.1070425,16.3212511 26.0664369,14.0300746 30.8436967,11.476029 C35.6209566,8.92198344 43.0125308,6.30450873 53.4999998,6.30450873 Z M36.1912241,18.9131677 C28.4071939,18.9131677 22.0294985,25.3012282 22.0294985,33.0979091 C22.0294985,40.8945901 28.4071939,47.2826505 36.1912241,47.2826505 C43.9752544,47.2826505 50.3529497,40.8945901 50.3529497,33.0979091 C50.3529497,25.3012282 43.9752544,18.9131677 36.1912241,18.9131677 Z M70.8026294,18.9193242 C63.0203363,18.9193242 56.64705,25.3029682 56.64705,33.0979091 C56.64705,40.8928501 63.0203363,47.2764943 70.8026294,47.2764943 C78.5849193,47.2764943 84.964355,40.8928469 84.964355,33.0979091 C84.964355,25.3029713 78.5849193,18.9193242 70.8026294,18.9193242 Z M15.7353983,22.0653325 C13.9982266,22.0653325 12.5883481,23.4775023 12.5883481,25.2174972 C12.5883481,26.9574922 13.9982266,28.369662 15.7353983,28.369662 C15.9493977,28.369662 16.1363513,28.2875071 16.3377625,28.2465321 C16.7594673,26.5222949 17.3786494,24.8715472 18.2063236,23.3458994 C17.6304134,22.5862277 16.7613366,22.0653325 15.7353983,22.0653325 Z M91.2646014,22.0653325 C90.2386631,22.0653325 89.3695863,22.5862277 88.7936761,23.3458994 C89.6213503,24.8715472 90.2405324,26.5222949 90.6622372,28.2465321 C90.8636484,28.2875071 91.050602,28.369662 91.2646014,28.369662 C93.0017731,28.369662 94.4116516,26.9574922 94.4116516,25.2174972 C94.4116516,23.4775023 93.0017731,22.0653325 91.2646014,22.0653325 Z M36.1912241,25.2174972 C40.5736708,25.2174972 44.0588494,28.70834 44.0588494,33.0979091 C44.0588494,37.4874782 40.5736708,40.978321 36.1912241,40.978321 C33.596733,40.978321 31.3379693,39.7352901 29.9094162,37.8261563 C32.5117162,37.8193688 34.6177079,35.7044472 34.617699,33.0979091 C34.6177079,30.4913711 32.5117162,28.3764494 29.9094162,28.369662 C31.3379693,26.4605282 33.596733,25.2174972 36.1912241,25.2174972 Z M70.8026294,25.2236534 C75.1833358,25.2236534 78.6702547,28.7100832 78.6702547,33.0979091 C78.6702547,37.4857351 75.1833358,40.9721648 70.8026294,40.9721648 C68.2095419,40.9721648 65.9541297,39.7331907 64.5269677,37.8261563 C67.1292676,37.8193688 69.2352593,35.7044472 69.2352505,33.0979091 C69.2352593,30.4913711 67.1292676,28.3764494 64.5269677,28.369662 C65.9541297,26.4626275 68.2095419,25.2236534 70.8026294,25.2236534 Z M53.4999998,44.1304858 C49.0407594,44.1318845 45.1910331,46.2164776 44.2678325,49.1296236 C43.3182951,49.7164621 42.4184559,50.3786626 41.6370968,51.1612915 C39.3723694,53.4296996 37.7647492,56.4764654 37.7647492,59.8913095 C37.7647492,60.6793507 37.9461452,63.8419617 40.4139265,66.0047849 C41.960966,67.3606476 44.1902231,68.2773318 47.2058996,68.8121816 L47.2058996,72.4999685 C47.1898487,73.6367524 47.7861379,74.6941317 48.7664363,75.2672153 C49.7467347,75.8402989 50.9591647,75.8402989 51.9394631,75.2672153 C52.9197615,74.6941317 53.5160507,73.6367524 53.4999998,72.4999685 C53.483949,73.6367524 54.0802381,74.6941317 55.0605366,75.2672153 C56.040835,75.8402989 57.253265,75.8402989 58.2335634,75.2672153 C59.2138618,74.6941317 59.810151,73.6367524 59.7941001,72.4999685 L59.7941001,68.8121816 C62.8097766,68.2773318 65.0390337,67.3606476 66.5860731,66.0047849 C69.0538608,63.8419617 69.2352505,60.6793507 69.2352505,59.8913095 C69.2352505,56.4764654 67.6276303,53.4296996 65.3629029,51.1612915 C64.5803039,50.3774206 63.6773051,49.7170201 62.726021,49.1296236 C61.8032998,46.2179826 57.9569337,44.1338215 53.4999998,44.1304858 L53.4999998,44.1304858 Z M46.9047174,54.9352681 C48.6657782,56.0888418 51.0330672,56.7363194 53.4999998,56.7391448 C55.9677583,56.7390372 58.3373661,56.0937397 60.1014284,54.9414274 C60.3802445,55.1519006 60.6596742,55.3651351 60.9127789,55.6186479 C62.1884828,56.8964252 62.9411502,58.5779065 62.9411502,59.8913095 C62.9411502,60.6793507 63.1225462,60.6689044 62.4432775,61.2642254 C61.764015,61.8595464 59.4007188,63.0434743 53.4999998,63.0434743 C47.5992808,63.0434743 45.2359847,61.8595464 44.5567222,61.2642254 C43.8774598,60.6689044 44.0588494,60.6793507 44.0588494,59.8913095 C44.0588494,58.5779065 44.8115168,56.8964252 46.0872208,55.6186479 C46.3423994,55.3630578 46.623453,55.1470967 46.9047174,54.9352681 Z" id="Shape"></path>
                </g>
                <g id="sketch-copy" transform="translate(881.000000, 502.000000)">
                    <path d="M113.508354,0 L48.7848682,9.24013361 L0,77.563658 L113.508354,210 L227,77.563658 L178.215132,9.24013361 L113.508354,0 Z M91.8725979,20.3683965 L63.9215426,52.3162027 L65.8595759,24.0945257 L91.8725979,20.3683965 Z M135.14411,20.3683965 L161.157132,24.0778169 L163.095165,52.3162027 L135.14411,20.3683965 Z M113.508354,21.6382874 L154.541106,68.5240302 L72.4756017,68.5240302 L113.508354,21.6382874 Z M47.5986606,40.3524825 L45.6439238,68.5240302 L27.483256,68.5240302 L47.5986606,40.3524825 Z M179.418046,40.3691923 L199.533455,68.5240302 L181.372786,68.5240302 L179.418046,40.3691923 Z M29.4714058,85.6341514 L48.350482,85.6341514 L74.7811858,138.518465 L29.4714058,85.6341514 Z M67.4801681,85.6341514 L159.53654,85.6341514 L113.508354,177.718018 L67.4801681,85.6341514 Z M178.66623,85.6341514 L197.545304,85.6341514 L152.235522,138.518465 L178.66623,85.6341514 Z" id="Shape"></path>
                </g>
                <g id="github-copy" transform="translate(1148.000000, 393.000000)">
                    <path d="M41.7240933,0.324856634 C20.0602041,2.67156857 2.63490188,20.0372369 0.280131309,41.1576443 C-2.07463926,63.2167365 10.6411218,82.9291168 29.9502405,90.438595 C31.3631028,90.9079374 32.7759652,89.9692526 32.7759652,88.091883 L32.7759652,80.5824048 C32.7759652,80.5824048 30.8921487,81.0517472 28.5373782,81.0517472 C21.9440206,81.0517472 19.1182959,75.4196386 18.6473418,72.1342419 C18.1763876,70.2568723 17.2344794,68.8488452 15.8216171,67.440818 C14.4087547,66.9714756 13.9378006,66.9714756 13.9378006,66.5021332 C13.9378006,65.5634484 15.350663,65.5634484 15.8216171,65.5634484 C18.6473418,65.5634484 21.0021123,68.8488452 21.9440206,70.2568723 C24.2987911,74.0116114 27.1245158,74.9502962 28.5373782,74.9502962 C30.4211946,74.9502962 31.8340569,74.4809538 32.7759652,74.0116114 C33.2469193,70.7262147 34.6597816,67.440818 37.4855063,65.5634484 C26.6535617,63.2167365 18.6473418,57.1152855 18.6473418,46.789753 C18.6473418,41.6269867 21.0021123,36.4642204 24.2987911,32.7094813 C23.827837,31.7707966 23.3568829,29.4240846 23.3568829,26.1386879 C23.3568829,24.2613184 23.3568829,21.4452641 24.7697452,18.6292097 C24.7697452,18.6292097 31.3631028,18.6292097 37.9564604,24.7306608 C40.311231,23.791976 43.6079098,23.3226336 46.9045886,23.3226336 C50.2012674,23.3226336 53.4979462,23.791976 56.3236709,24.7306608 C62.4460744,18.6292097 69.5103861,18.6292097 69.5103861,18.6292097 C70.4522943,21.4452641 70.4522943,24.2613184 70.4522943,26.1386879 C70.4522943,29.893427 69.9813402,31.7707966 69.5103861,32.7094813 C72.8070649,36.4642204 75.1618354,41.1576443 75.1618354,46.789753 C75.1618354,57.1152855 67.1556155,63.2167365 56.3236709,65.5634484 C59.1493956,67.9101604 61.033212,72.1342419 61.033212,76.3583234 L61.033212,88.5612254 C61.033212,89.9692526 62.4460744,91.3772797 64.3298908,90.9079374 C81.755193,83.8678015 94,66.9714756 94,47.2590953 C94,19.0985521 69.9813402,-2.96054008 41.7240933,0.324856634 Z" id="Path"></path>
                </g>
                <g id="ts-copy" transform="translate(736.000000, 0.000000)">
                    <path d="M141.547619,0 L3.45238095,0 C1.54321429,0 0,1.54666667 0,3.45238095 L0,141.547619 C0,143.453333 1.54321429,145 3.45238095,145 L141.547619,145 C143.456786,145 145,143.453333 145,141.547619 L145,3.45238095 C145,1.54666667 143.456786,0 141.547619,0 Z M86.3095238,77.4886905 L69.047619,77.4886905 L69.047619,131.190476 L55.2380952,131.190476 L55.2380952,77.4886905 L37.9761905,77.4886905 L37.9761905,65.5952381 L86.3095238,65.5952381 L86.3095238,77.4886905 Z M90.1796429,128.124762 L90.1796429,113.769762 C90.1796429,113.769762 98.02,119.680238 107.427738,119.680238 C116.835476,119.680238 116.472976,113.528095 116.472976,112.685714 C116.472976,103.757857 89.8171429,103.757857 89.8171429,83.9791667 C89.8171429,57.0816667 128.656429,67.6942857 128.656429,67.6942857 L128.173095,80.4819048 C128.173095,80.4819048 121.658452,76.1388095 114.301429,76.1388095 C106.944405,76.1388095 104.289524,79.6360714 104.289524,83.375 C104.289524,93.0244048 131.187024,92.0611905 131.187024,111.480833 C131.190476,141.392262 90.1796429,128.124762 90.1796429,128.124762 Z" id="Shape"></path>
                </g>
                <g id="js-copy" transform="translate(1051.000000, 117.000000)">
                    <path d="M90.8472854,0 L6.16173793,0 C2.76060383,0 0,2.76060383 0,6.16173793 L0,90.8382621 C0,94.2393985 2.76060383,97 6.16173793,97 L90.8382621,97 C94.2393985,97 97,94.2393985 97,90.8472854 L97,6.16173793 C97,2.76060383 94.2393985,0 90.8472854,0 Z M53.1190476,74.3287766 C53.1190476,83.5578509 47.7061012,87.7619048 39.8031994,87.7619048 C32.6581101,87.7619048 27.5067889,82.9714466 25.4047619,78.5238095 L32.6671311,74.1303008 C34.0654762,76.6112351 36.1945685,78.5238095 39.2619048,78.5238095 C42.1939168,78.5238095 43.8809524,77.3780686 43.8809524,72.9214105 L43.8809524,43.8809524 L53.1190476,43.8809524 L53.1190476,74.3287766 Z M73.1559704,87.7619048 C64.9734015,87.7619048 60.3272885,83.6390445 57.7380952,78.5238095 L64.6666667,73.9047619 C66.5521758,76.9901425 68.6090954,79.9401966 72.9574969,79.9401966 C76.6112351,79.9401966 78.5238095,78.1178391 78.5238095,75.5917975 C78.5238095,72.5785895 76.5390625,71.5050235 72.5244611,69.7458153 L70.3231963,68.7985503 C63.9629848,66.092077 59.7318633,62.699964 59.7318633,55.5187884 C59.7318633,48.9149937 64.7749256,43.8809524 72.6417411,43.8809524 C78.24414,43.8809524 82.2677647,45.8296131 85.1727115,50.935827 L78.3163127,55.3473778 C76.8006877,52.6318836 75.1768037,51.5673363 72.6417411,51.5673363 C70.0615711,51.5673363 68.4286639,53.2092645 68.4286639,55.3473778 C68.4286639,57.9906994 70.0615711,59.0552467 73.8416103,60.6971726 L76.0428752,61.6444377 C83.5398065,64.8470982 87.7619048,68.1219314 87.7619048,75.4835385 C87.7619048,83.4135056 81.5279942,87.7619048 73.1559704,87.7619048 Z" id="Shape"></path>
                </g>
            </g>
        </g>
    </g>
</svg>