<?xml version="1.0" encoding="UTF-8"?>
<svg width="376px" height="879px" viewBox="0 0 376 879" version="1.1" xmlns="http://www.w3.org/2000/svg" xmlns:xlink="http://www.w3.org/1999/xlink">
    <title>icons-mobile</title>
    <g id="portfolio" stroke="none" stroke-width="1" fill="none" fill-rule="evenodd">
        <g id="Mobile" transform="translate(-34.000000, -46.000000)" fill="#00FFCA" fill-rule="nonzero">
            <g id="icons-mobile" transform="translate(34.000000, 46.000000)">
                <g id="sketch-copy" transform="translate(9.000000, 589.000000)">
                    <path d="M41.0030177,0 L17.6227277,3.34404835 L0,28.0706572 L41.0030177,76 L82,28.0706572 L64.3772723,3.34404835 L41.0030177,0 Z M33.1874583,7.37141968 L23.0906013,18.9334829 L23.7906838,8.7199236 L33.1874583,7.37141968 Z M48.8185771,7.37141968 L58.2153516,8.71387658 L58.9154341,18.9334829 L48.8185771,7.37141968 Z M41.0030177,7.83099926 L55.8254216,24.7991728 L26.1806138,24.7991728 L41.0030177,7.83099926 Z M17.1942298,14.6037556 L16.4881134,24.7991728 L9.92787222,24.7991728 L17.1942298,14.6037556 Z M64.8118053,14.6098029 L72.0781644,24.7991728 L65.5179226,24.7991728 L64.8118053,14.6098029 Z M10.6460585,30.9914072 L17.4658129,30.9914072 L27.013468,50.130492 L10.6460585,30.9914072 Z M24.376096,30.9914072 L57.6299395,30.9914072 L41.0030177,64.3169969 L24.376096,30.9914072 Z M64.5402241,30.9914072 L71.3599775,30.9914072 L54.9925674,50.130492 L64.5402241,30.9914072 Z" id="Shape"></path>
                </g>
                <g id="react-copy" transform="translate(135.000000, 144.000000)">
                    <path d="M51,68 C22.3956522,68 0,58.32 0,46 C0,33.68 22.3956522,24 51,24 C79.6043478,24 102,33.68 102,46 C102,58.32 79.6043478,68 51,68 Z M51,28.4 C23.0608696,28.4 4.43478261,37.42 4.43478261,46 C4.43478261,54.58 23.0608696,63.6 51,63.6 C78.9391304,63.6 97.5652174,54.58 97.5652174,46 C97.5652174,37.42 78.9391304,28.4 51,28.4 Z" id="Shape"></path>
                    <path d="M31.3676777,91 C29.1497189,91 27.375352,90.5625215 25.600985,89.4688254 C14.7329872,83.3441271 17.6163336,59.5015514 31.8112694,35.0027581 L31.8112694,35.0027581 C38.4651456,23.6283183 46.6715929,14.0037924 54.6562443,7.87909406 C63.3062834,1.31691727 71.0691389,-0.651735761 76.3922398,2.41061341 C81.9371367,5.47296257 83.9332995,13.1288355 82.6025243,23.8470576 C81.271749,33.909062 76.8358316,45.7209802 70.1819554,57.0954199 C63.5280792,68.4698597 55.3216319,78.0943857 47.3369805,84.219084 C41.5702878,88.5938685 36.025391,91 31.3676777,91 Z M70.847343,5.25422335 C67.2986091,5.25422335 62.6408957,7.22287638 57.5395907,11.1601825 C49.998531,17.0661416 42.2356754,26.2531891 35.8035951,37.1901504 L35.8035951,37.1901504 C21.8304551,61.032726 20.4996799,81.5942133 27.8189437,85.7502586 C31.5894735,87.9376508 37.799758,85.9689978 44.67543,80.7192564 C52.2164897,74.8132973 59.9793453,65.6262498 66.4114256,54.6892885 C72.8435059,43.7523271 77.0576275,32.5966266 78.3884027,23.1908399 C79.4973821,14.4412708 78.1666068,8.31657251 74.396077,6.12918025 C73.2870976,5.6917018 72.1781183,5.25422335 70.847343,5.25422335 Z" id="Shape"></path>
                    <path d="M70.8170885,91 C59.7777515,91 43.8811063,77.509967 31.9586223,56.5008991 C17.6074842,31.7323138 14.7372566,7.62717283 25.5558069,1.43502652 L25.5558069,1.43502652 C36.3743571,-4.75711979 55.8035902,9.61750558 70.1547283,34.3860908 C76.7783305,45.8857911 81.1940653,57.8277876 82.5187857,68.0005994 C84.0642929,78.8368555 81.8564255,86.3558903 76.336757,89.6731115 C74.5704631,90.5577038 72.8041692,91 70.8170885,91 Z M27.7636743,5.19454393 C20.4777118,9.3963575 21.8024323,30.1842773 35.7119969,54.2894183 C49.6215615,78.3945593 66.8429272,89.8942596 74.1288896,85.692446 C77.8822642,83.4809652 79.2069846,77.2888189 78.1030509,68.4428956 C76.7783305,58.933528 72.5833824,47.6549758 66.180567,36.5975717 C52.2710024,12.4924307 35.0496367,0.992730355 27.7636743,5.19454393 L27.7636743,5.19454393 Z" id="Shape"></path>
                    <circle id="Oval" cx="51" cy="46" r="9"></circle>
                </g>
                <g id="insta-copy" transform="translate(288.000000, 107.000000)">
                    <path d="M24.1107955,0 C10.8760663,0 0,10.8615075 0,24.1107955 L0,57.8892045 C0,71.1239337 10.8615075,82 24.1107955,82 L57.8892045,82 C71.1239337,82 82,71.1384962 82,57.8892045 L82,24.1107955 C82,10.8760663 71.1384962,0 57.8892045,0 L24.1107955,0 Z M24.1107955,7.45454545 L57.8892045,7.45454545 C67.1054678,7.45454545 74.5454545,14.8945322 74.5454545,24.1107955 L74.5454545,57.8892045 C74.5454545,67.1054678 67.1054678,74.5454545 57.8892045,74.5454545 L24.1107955,74.5454545 C14.8945322,74.5454545 7.45454545,67.1054678 7.45454545,57.8892045 L7.45454545,24.1107955 C7.45454545,14.8945322 14.8945322,7.45454545 24.1107955,7.45454545 Z M63.0142045,15.6079545 C61.1360095,15.6079545 59.6363636,17.1076004 59.6363636,18.9857955 C59.6363636,20.8639905 61.1360095,22.3636364 63.0142045,22.3636364 C64.8923996,22.3636364 66.3920455,20.8639905 66.3920455,18.9857955 C66.3920455,17.1076004 64.8923996,15.6079545 63.0142045,15.6079545 Z M41,18.6363636 C28.697089,18.6363636 18.6363636,28.697089 18.6363636,41 C18.6363636,53.302911 28.697089,63.3636364 41,63.3636364 C53.302911,63.3636364 63.3636364,53.302911 63.3636364,41 C63.3636364,28.697089 53.302911,18.6363636 41,18.6363636 Z M41,26.0909091 C49.2844451,26.0909091 55.9090909,32.7155549 55.9090909,41 C55.9090909,49.2844451 49.2844451,55.9090909 41,55.9090909 C32.7155549,55.9090909 26.0909091,49.2844451 26.0909091,41 C26.0909091,32.7155549 32.7155549,26.0909091 41,26.0909091 Z" id="Shape"></path>
                </g>
                <g id="figma-copy" transform="translate(50.000000, 771.000000)">
                    <path d="M13.8125,0 C6.20347,0 0,6.17301171 0,13.7446809 C0,19.0813232 3.16863138,23.596957 7.652099,25.8723404 C3.16863138,28.1477238 0,32.6633576 0,38 C0,43.3366424 3.16863138,47.8522762 7.652099,50.1276596 C3.16863138,52.403043 0,56.9186768 0,62.2553191 C0,69.8269889 6.20347,76 13.8125,76 C21.42153,76 27.625,69.8269889 27.625,62.2553191 L27.625,50.1276596 L27.625,44.7207447 C29.8047214,48.836819 34.0146073,51.7446809 39,51.7446809 C46.1604585,51.7446809 52,45.9338049 52,38.8085106 C52,32.9520574 47.9800311,28.1825545 42.5991215,26.5987371 C48.0245318,24.7431858 52,19.7603622 52,13.7446809 C52,6.17301171 45.79653,0 38.1875,0 L26,0 L13.8125,0 Z M13.8125,3.23404255 L24.375,3.23404255 L24.375,24.2553191 L13.8125,24.2553191 C7.96003,24.2553191 3.25,19.5684153 3.25,13.7446809 C3.25,7.92094574 7.96003,3.23404255 13.8125,3.23404255 Z M27.625,3.23404255 L38.1875,3.23404255 C44.03997,3.23404255 48.75,7.92094574 48.75,13.7446809 C48.75,19.5684153 44.03997,24.2553191 38.1875,24.2553191 L27.625,24.2553191 L27.625,3.23404255 Z M13.8125,27.4893617 L24.375,27.4893617 L24.375,48.5106383 L13.8125,48.5106383 C7.96003,48.5106383 3.25,43.8237345 3.25,38 C3.25,32.1762655 7.96003,27.4893617 13.8125,27.4893617 Z M27.625,27.4893617 L33.0585938,27.4893617 C30.7268634,28.7120659 28.8537373,30.5759934 27.625,32.8962766 L27.625,27.4893617 Z M39,29.106383 C44.4040285,29.106383 48.75,33.4310191 48.75,38.8085106 C48.75,44.1860022 44.4040285,48.5106383 39,48.5106383 C33.5959715,48.5106383 29.25,44.1860022 29.25,38.8085106 C29.25,33.4310191 33.5959715,29.106383 39,29.106383 Z M13.8125,51.7446809 L24.375,51.7446809 L24.375,62.2553191 C24.375,68.0790536 19.66497,72.7659574 13.8125,72.7659574 C7.96003,72.7659574 3.25,68.0790536 3.25,62.2553191 C3.25,56.4315847 7.96003,51.7446809 13.8125,51.7446809 Z" id="Shape"></path>
                </g>
                <g id="nodejs-copy" transform="translate(179.000000, 621.977636)">
                    <path d="M70.3679218,29.3326782 L50.219499,40.4182353 C49.4639845,40.8306262 49,41.5982449 49,42.4271098 L49,64.6104733 C49,65.4393382 49.4639845,66.2028738 50.219499,66.6193477 L70.3720279,77.713071 C71.1234364,78.1254619 72.0555113,78.1254619 72.8069198,77.713071 L92.9553426,66.6193477 C93.7026451,66.2028738 94.1666295,65.4393382 94.1666295,64.6104733 L94.1666295,42.4271098 C94.1666295,41.5982449 93.7026451,40.8347093 92.9471305,40.4182353 L72.8028138,29.3326782 C72.4250565,29.1244412 72.0021326,29.0223642 71.5833148,29.0223642 C71.1603909,29.0223642 70.741573,29.1244412 70.3638158,29.3326782 M174.033549,49.3030133 L170.674794,51.1485647 C170.547506,51.217977 170.473597,51.3445524 170.473597,51.4833771 L170.473597,55.1826459 C170.473597,55.3214705 170.551612,55.4480459 170.674794,55.5174583 L174.033549,57.3670927 C174.160836,57.436505 174.312761,57.436505 174.440048,57.3670927 L177.798803,55.5174583 C177.921985,55.4480459 178,55.3214705 178,55.1826459 L178,51.4833771 C178,51.3445524 177.921985,51.217977 177.794697,51.1485647 L174.435942,49.3030133 C174.374351,49.2662656 174.304548,49.2499333 174.234746,49.2499333 C174.164943,49.2499333 174.09514,49.2662656 174.033549,49.3030133" id="Shape"></path>
                    <path d="M146.981364,5.62113065 L137.208182,0.148675871 C136.901364,-0.023749561 136.525,-0.0196441936 136.222273,0.160991973 C135.919545,0.34162814 135.731364,0.665952166 135.731364,1.01901376 L135.727273,34.0754323 L126.715,29.0709894 C126.338636,28.8616156 125.917273,28.7589815 125.5,28.7589815 C125.082727,28.7589815 124.661364,28.8616156 124.285,29.0709894 L124.289091,29.0709894 L104.215,40.2170619 C103.462273,40.6317041 103,41.4035131 103,42.2327973 L103,64.5372586 C103,65.3706482 103.462273,66.1383519 104.215,66.5570993 L124.293182,77.7113826 C125.041818,78.1260247 125.970455,78.1260247 126.719091,77.7113826 L146.793182,66.5570993 C147.537727,66.1424572 148,65.3706482 148,64.5372586 L148,7.36180644 C148,6.63926177 147.607273,5.97419225 146.981364,5.62113065 Z M135.179091,59.3768117 L126.056364,64.4469405 C125.716818,64.6357874 125.295455,64.6357874 124.955909,64.4469405 L115.829091,59.3768117 C115.481364,59.1879648 115.272727,58.8349032 115.272727,58.4572094 L115.272727,48.3169519 C115.272727,47.9392581 115.481364,47.5903018 115.825,47.3973496 L124.951818,42.3313262 L124.947727,42.3313262 C125.119545,42.2369027 125.307727,42.1917437 125.5,42.1917437 C125.692273,42.1917437 125.880455,42.2410081 126.052273,42.3313262 L135.175,47.3973496 C135.518636,47.5903018 135.727273,47.9433634 135.727273,48.3210572 L135.727273,58.4613148 C135.727273,58.8349032 135.518636,59.1879648 135.179091,59.3768117 Z" id="Shape"></path>
                    <path d="M70.2890909,29.3326782 L49,64.6104733 C49,65.4393382 49.4622727,66.2028738 50.215,66.6193477 L70.2931818,77.713071 C71.0418182,78.1254619 71.9704545,78.1254619 72.7190909,77.713071 L94,42.4271098 C94,41.5982449 93.5377273,40.8347093 92.785,40.4182353 L72.715,29.3326782 C72.3386364,29.1244412 71.9172727,29.0223642 71.5,29.0223642 C71.0786364,29.0223642 70.6613636,29.1244412 70.285,29.3326782" id="Path"></path>
                    <path d="M70.2890909,29.3326782 L50.215,40.4182353 C49.4622727,40.8306262 49,41.5982449 49,42.4271098 L70.2890909,77.713071 C71.0377273,78.1254619 71.9663636,78.1254619 72.715,77.713071 L92.7890909,66.6193477 C93.5377273,66.2028738 94,65.4393382 94,64.6104733 L72.715,29.3326782 C72.3386364,29.1244412 71.9172727,29.0223642 71.5,29.0223642 C71.0786364,29.0223642 70.6613636,29.1244412 70.285,29.3326782" id="Path"></path>
                    <path d="M195.781062,40.4175232 L175.646021,29.3326588 C175.268437,29.1244348 174.845708,29.0223642 174.427083,29.0223642 C174.008458,29.0223642 173.585729,29.1244348 173.208146,29.3326588 L173.21225,29.3326588 L153.073104,40.4175232 C152.322042,40.8298883 151.854167,41.6137903 151.854167,42.4711831 L151.854167,64.5633383 C151.854167,65.4166483 152.322042,66.2046331 153.073104,66.6169982 L173.216354,77.7100283 C173.971521,78.1264762 174.894958,78.1264762 175.650125,77.7100283 L184.937854,72.5942511 C185.787417,72.1247264 185.783312,70.912128 184.929646,70.4466862 L164.720729,59.4761408 C164.380083,59.2842481 164.166667,58.9290425 164.166667,58.5452572 L164.166667,48.4770157 C164.166667,48.101396 164.371875,47.7543561 164.700208,47.5747118 L173.873021,42.5283426 L173.868917,42.5283426 C174.041292,42.4344377 174.230083,42.3895267 174.422979,42.3895267 C174.615875,42.3895267 174.804667,42.4385205 174.977042,42.5283426 L184.149854,47.5787947 C184.478187,47.7584389 184.683396,48.1054788 184.683396,48.4810985 L184.683396,56.6957384 C184.683396,57.0468612 184.872187,57.373487 185.18,57.5490484 C185.487812,57.7205269 185.865396,57.7205269 186.173208,57.5449656 L196.015,51.8575931 C196.622417,51.5064704 197,50.8573015 197,50.155056 L197,42.4793488 C197,41.6178731 196.532125,40.8298883 195.781062,40.4175232 Z M43.9268958,40.4175232 L23.7918542,29.3326588 C23.4142708,29.1244348 22.9915417,29.0223642 22.5729167,29.0223642 C22.1542917,29.0223642 21.7315625,29.1244348 21.3539792,29.3326588 L21.3580833,29.3326588 L1.2189375,40.4175232 C0.467875,40.8298883 0,41.6137903 0,42.4711831 L0,72.9494567 C0,73.3005794 0.188791667,73.6272053 0.496604167,73.8027667 C0.804416667,73.9742452 1.182,73.9742452 1.4898125,73.7986838 L11.3316042,68.1113114 C11.9390208,67.7601887 12.3125,67.1110198 12.3125,66.4087742 L12.3125,48.4729329 C12.3125,48.0973132 12.5177083,47.7502732 12.8460417,47.570629 L22.0188542,42.5242598 L22.0188542,42.5242598 C22.1912292,42.4303549 22.3800208,42.3854438 22.5729167,42.3854438 C22.7658125,42.3854438 22.9546042,42.4344377 23.1269792,42.5242598 L32.2997917,47.5747118 C32.628125,47.7543561 32.8333333,48.101396 32.8333333,48.4770157 L32.8333333,66.4128571 C32.8333333,67.1151026 33.2068125,67.7642715 33.8183333,68.1153943 L43.660125,73.8027667 C43.9679375,73.9783281 44.3455208,73.9783281 44.6533333,73.8068495 C44.9570417,73.6272053 45.1458333,73.3005794 45.1458333,72.9494567 L45.1458333,42.4752659 C45.1458333,41.6178731 44.6779583,40.8298883 43.9268958,40.4175232 Z" id="Shape"></path>
                </g>
                <g id="golang-copy" transform="translate(189.924138, 0.000000)">
                    <path d="M33.5758621,0 C33.5103454,0 33.4448348,0.00199013807 33.3795742,0.00783993802 C26.255608,0.0417498025 21.0039753,1.85391201 17.5340864,3.71320456 C14.7356914,5.21268594 13.8613556,6.25800366 13.2811687,6.84286608 C12.2150263,6.41848169 11.1641539,5.93487784 9.92886845,5.93487784 C4.51071954,5.93487784 0.075862069,10.3869091 0.075862069,15.8261534 C0.075862069,19.8375978 2.54457824,23.1820716 5.98770287,24.724438 L5.98770287,43.2821703 L0.941933206,48.3475855 C-0.21282831,49.506843 -0.21282831,51.3843931 0.941933206,52.5436506 C1.51931396,53.1232793 2.27512489,53.4130007 3.03182868,53.4130007 C3.78853247,53.4130007 4.54434359,53.1232793 5.12172435,52.5436506 L5.46426681,52.1997745 C5.32495646,53.0981476 5.19568032,53.9897907 5.03320183,54.9276023 C4.53560208,57.7996924 4.01712008,61.2161173 4.01712008,67.2607866 C4.01712008,72.874129 6.67418691,78.696116 11.5761535,83.1718312 L8.82426418,85.9344328 C7.66950266,87.0936903 7.66950266,88.9712404 8.82426418,90.1304979 C9.40164494,90.7101266 10.1574561,91 10.9141599,91 C11.6708636,91 12.4286453,90.7101266 13.0040555,90.1304979 L16.4294821,86.6917346 C20.9848074,89.3127782 26.6844482,90.9637073 33.4026655,90.992121 C33.4142009,90.9935113 33.4257483,90.9947992 33.4373064,90.9959845 C33.4846102,90.9961447 33.5284596,91 33.5758621,91 C33.6426614,91 33.7094598,90.9981003 33.7759983,90.992121 C40.4823152,90.9593492 46.1730371,89.3092272 50.7222418,86.6917346 L54.1476684,90.1304979 C54.7230786,90.7101266 55.4808603,91 56.2375641,91 C56.9942679,91 57.750079,90.7101266 58.3274598,90.1304979 C59.4822213,88.9712404 59.4822213,87.0936903 58.3274598,85.9344328 L55.5717219,83.1679677 C60.4717947,78.6926066 63.1346039,72.8729104 63.1346039,67.2607866 C63.1346039,61.2161173 62.6161219,57.7996924 62.1185221,54.9276023 C61.9560436,53.9897907 61.8267675,53.0981476 61.6874571,52.1997745 L62.0299996,52.5436506 C62.6073804,53.1232793 63.3631915,53.4130007 64.1198953,53.4130007 C64.8765991,53.4130007 65.6324102,53.1232793 66.2097909,52.5436506 C67.3645524,51.3843931 67.3645524,49.506843 66.2097909,48.3475855 L61.1640211,43.2821703 L61.1640211,24.724438 C64.6071455,23.1820716 67.0758621,19.8375978 67.0758621,15.8261534 C67.0758621,10.3869091 62.6410044,5.93487784 57.2228555,5.93487784 C55.98757,5.93487784 54.9366977,6.41848169 53.8705552,6.84286608 C53.2903683,6.25800366 52.4160326,5.21268594 49.6176375,3.71320456 C46.1380928,1.84873867 40.8686894,0.0280031055 33.7144176,0.00397620795 C33.6682918,0.00105771745 33.622078,0 33.5758621,0 Z M33.575862,3.95662272 C40.1427818,3.95662272 44.7711507,5.59931374 47.7625191,7.20219753 C50.7538874,8.80508131 51.9807978,10.2429921 51.9807978,10.2429921 C52.597977,10.9481269 53.6237635,11.120833 54.4363292,10.6564165 C55.2880526,10.1691189 56.213787,9.89138808 57.2228555,9.89138808 C60.5107413,9.89138808 63.1346039,12.5254666 63.1346039,15.8261534 C63.1346039,18.6058868 61.2488606,20.8958694 58.7007926,21.5561377 C57.8318125,21.7814519 57.2242255,22.5677192 57.2228555,23.4687089 L57.2228555,45.4999802 C57.2228555,50.098549 57.7512456,52.7927287 58.2389372,55.6076275 C58.7266289,58.4225263 59.1934383,61.4359252 59.1934383,67.2607866 C59.1934383,76.1082161 50.4532474,87.0433378 33.575862,87.0433378 C16.6984766,87.0433378 7.95828566,76.1082161 7.95828566,67.2607866 C7.95828566,61.4359252 8.42509505,58.4225263 8.9127867,55.6076275 C9.40047835,52.7927287 9.92886845,50.098549 9.92886845,45.4999802 L9.92886845,23.4687089 C9.92749848,22.5677192 9.3199114,21.7814519 8.45093136,21.5561377 C5.90286337,20.8958694 4.01712008,18.6058868 4.01712008,15.8261534 C4.01712008,12.5254666 6.64098259,9.89138808 9.92886845,9.89138808 C10.9379369,9.89138808 11.8636753,10.1691191 12.7153947,10.6564165 C13.5279604,11.120833 14.5537469,10.9481269 15.1709261,10.2429921 C15.1709261,10.2429921 16.3978366,8.80508131 19.3892049,7.20219753 C22.3805732,5.59931374 27.0089421,3.95662272 33.575862,3.95662272 Z M22.7376566,11.8696432 C17.8635442,11.8696432 13.870034,15.8787018 13.870034,20.7717912 C13.870034,25.6648807 17.8635442,29.6739393 22.7376566,29.6739393 C27.611769,29.6739393 31.6052792,25.6648807 31.6052792,20.7717912 C31.6052792,15.8787018 27.611769,11.8696432 22.7376566,11.8696432 Z M44.4102188,11.8735069 C39.5371942,11.8735069 35.5464448,15.8797938 35.5464448,20.7717912 C35.5464448,25.6637887 39.5371942,29.6700758 44.4102188,29.6700758 C49.2832414,29.6700758 53.2778414,25.6637867 53.2778414,20.7717912 C53.2778414,15.8797958 49.2832414,11.8735069 44.4102188,11.8735069 Z M9.92886845,13.8478983 C8.84110675,13.8478983 7.95828566,14.7341566 7.95828566,15.8261534 C7.95828566,16.9181503 8.84110675,17.8044086 9.92886845,17.8044086 C10.0628681,17.8044086 10.1799325,17.7528493 10.3060498,17.727134 C10.5701079,16.6450264 10.9578201,15.6090399 11.4760834,14.6515645 C11.1154667,14.174805 10.5712784,13.8478983 9.92886845,13.8478983 Z M57.2228555,13.8478983 C56.5804455,13.8478983 56.0362572,14.174805 55.6756406,14.6515645 C56.1939039,15.6090399 56.581616,16.6450264 56.8456741,17.727134 C56.9717914,17.7528493 57.0888559,17.8044086 57.2228555,17.8044086 C58.3106172,17.8044086 59.1934383,16.9181503 59.1934383,15.8261534 C59.1934383,14.7341566 58.3106172,13.8478983 57.2228555,13.8478983 Z M22.7376566,15.8261534 C25.4818055,15.8261534 27.6641136,18.0169582 27.6641136,20.7717912 C27.6641136,23.5266243 25.4818055,25.717429 22.7376566,25.717429 C21.1130687,25.717429 19.6987026,24.93732 18.8041881,23.7391739 C20.4336656,23.7349142 21.7523707,22.4076186 21.7523652,20.7717912 C21.7523707,19.1359639 20.4336656,17.8086683 18.8041881,17.8044086 C19.6987026,16.6062625 21.1130687,15.8261534 22.7376566,15.8261534 Z M44.4102188,15.830017 C47.1532779,15.830017 49.3366758,18.0180522 49.3366758,20.7717912 C49.3366758,23.5255303 47.1532779,25.7135655 44.4102188,25.7135655 C42.7865098,25.7135655 41.3742424,24.9360024 40.4805988,23.7391739 C42.1100764,23.7349142 43.4287815,22.4076186 43.4287759,20.7717912 C43.4287815,19.1359639 42.1100764,17.8086683 40.4805988,17.8044086 C41.3742424,16.60758 42.7865098,15.830017 44.4102188,15.830017 Z M33.575862,27.6956842 C30.7836273,27.696562 28.373051,29.0048239 27.7949721,30.8330741 C27.200402,31.2013659 26.6369513,31.6169538 26.147689,32.1081209 C24.7295887,33.5317425 23.722948,35.4438507 23.722948,37.5869598 C23.722948,38.0815235 23.8365324,40.0663346 25.3817787,41.4236926 C26.3504857,42.2746133 27.7463756,42.8499117 29.6346964,43.1855761 L29.6346964,45.4999802 C29.6246458,46.2134101 29.9980232,46.8770068 30.6118549,47.2366661 C31.2256866,47.5963255 31.9848717,47.5963255 32.5987035,47.2366661 C33.2125352,46.8770068 33.5859125,46.2134101 33.575862,45.4999802 C33.5658114,46.2134101 33.9391888,46.8770068 34.5530205,47.2366661 C35.1668522,47.5963255 35.9260373,47.5963255 36.5398691,47.2366661 C37.1537008,46.8770068 37.5270781,46.2134101 37.5170276,45.4999802 L37.5170276,43.1855761 C39.4053484,42.8499117 40.8012383,42.2746133 41.7699453,41.4236926 C43.3151955,40.0663346 43.4287759,38.0815235 43.4287759,37.5869598 C43.4287759,35.4438507 42.4221352,33.5317425 41.0040349,32.1081209 C40.5139963,31.6161743 39.9485671,31.201716 39.3529033,30.8330741 C38.7751245,29.0057684 36.3666524,27.6977777 33.575862,27.6956842 L33.575862,27.6956842 Z M29.4461057,34.4766165 C30.548826,35.2005835 32.0311471,35.6069315 33.575862,35.6087046 C35.1210939,35.6086371 36.604867,35.2036573 37.7094668,34.480482 C37.8840525,34.6125721 38.0590226,34.7463951 38.2175087,34.9054963 C39.0163139,35.7074117 39.4876103,36.7626861 39.4876103,37.5869598 C39.4876103,38.0815235 39.6011947,38.0749676 39.1758582,38.4485829 C38.7505257,38.8221981 37.2707047,39.5652149 33.575862,39.5652149 C29.8810192,39.5652149 28.4011983,38.8221981 27.9758657,38.4485829 C27.5505331,38.0749676 27.6641136,38.0815235 27.6641136,37.5869598 C27.6641136,36.7626861 28.13541,35.7074117 28.9342153,34.9054963 C29.094,34.7450914 29.2699868,34.6095572 29.4461057,34.4766165 Z" id="Shape"></path>
                </g>
                <g id="js-copy" transform="translate(278.000000, 815.000000)">
                    <path d="M59.940477,0 L4.06547657,0 C1.82142933,0 0,1.82142933 0,4.06547657 L0,59.9345234 C0,62.1785722 1.82142933,64 4.06547657,64 L59.9345234,64 C62.1785722,64 64,62.1785722 64,59.940477 L64,4.06547657 C64,1.82142933 62.1785722,0 59.940477,0 Z M35.047619,49.041667 C35.047619,55.1309531 31.4761905,57.9047619 26.2619048,57.9047619 C21.547619,57.9047619 18.1488091,54.7440472 16.7619048,51.8095238 L21.553571,48.9107139 C22.4761905,50.547619 23.8809524,51.8095238 25.9047619,51.8095238 C27.8392853,51.8095238 28.952381,51.053571 28.952381,48.1130956 L28.952381,28.952381 L35.047619,28.952381 L35.047619,49.041667 Z M48.2678568,57.9047619 C42.8690484,57.9047619 39.8035718,55.1845242 38.0952381,51.8095238 L42.6666667,48.7619048 C43.9107139,50.7976198 45.2678568,52.7440472 48.1369051,52.7440472 C50.547619,52.7440472 51.8095238,51.541667 51.8095238,49.8750004 C51.8095238,47.8869044 50.5,47.1785722 47.8511909,46.0178575 L46.3988099,45.3928579 C42.2023817,43.6071436 39.4107139,41.3690484 39.4107139,36.6309531 C39.4107139,32.2738103 42.7380952,28.952381 47.9285714,28.952381 C51.6249996,28.952381 54.2797623,30.2380952 56.1964282,33.6071436 L51.6726187,36.5178575 C50.6726187,34.7261912 49.6011901,34.0238095 47.9285714,34.0238095 C46.2261912,34.0238095 45.1488091,35.1071436 45.1488091,36.5178575 C45.1488091,38.2619048 46.2261912,38.9642865 48.7202377,40.047619 L50.1726187,40.6726187 C55.1190476,42.7857143 57.9047619,44.946429 57.9047619,49.8035718 C57.9047619,55.035715 53.7916663,57.9047619 48.2678568,57.9047619 Z" id="Shape"></path>
                </g>
                <g id="ts-copy" transform="translate(145.000000, 467.000000)">
                    <path d="M80.047619,0 L1.95238095,0 C0.872714286,0 0,0.874666667 0,1.95238095 L0,80.047619 C0,81.1253333 0.872714286,82 1.95238095,82 L80.047619,82 C81.1272857,82 82,81.1253333 82,80.047619 L82,1.95238095 C82,0.874666667 81.1272857,0 80.047619,0 Z M48.8095238,43.8211905 L39.047619,43.8211905 L39.047619,74.1904762 L31.2380952,74.1904762 L31.2380952,43.8211905 L21.4761905,43.8211905 L21.4761905,37.0952381 L48.8095238,37.0952381 L48.8095238,43.8211905 Z M50.9981429,72.4567619 L50.9981429,64.3387619 C50.9981429,64.3387619 55.432,67.6812381 60.7522381,67.6812381 C66.0724762,67.6812381 65.8674762,64.2020952 65.8674762,63.7257143 C65.8674762,58.6768571 50.7931429,58.6768571 50.7931429,47.4916667 C50.7931429,32.2806667 72.7574286,38.2822857 72.7574286,38.2822857 L72.4840952,45.5139048 C72.4840952,45.5139048 68.7999524,43.0578095 64.6394286,43.0578095 C60.4789048,43.0578095 58.9775238,45.0355714 58.9775238,47.15 C58.9775238,52.6069048 74.1885238,52.0621905 74.1885238,63.0443333 C74.1904762,79.9597619 50.9981429,72.4567619 50.9981429,72.4567619 Z" id="Shape"></path>
                </g>
                <g id="github-copy" transform="translate(0.000000, 91.000000)">
                    <path d="M40.3924733,0.314147075 C19.4199848,2.58349488 2.55080927,19.3766686 0.271190948,39.8007989 C-2.00842737,61.1326683 10.3015115,80.1951898 28.9943818,87.4571028 C30.3621527,87.9109724 31.7299237,87.0032333 31.7299237,85.187755 L31.7299237,77.925842 C31.7299237,77.925842 29.9062291,78.3797116 27.6266108,78.3797116 C21.2436795,78.3797116 18.5081375,72.9332769 18.0522138,69.7561899 C17.5962902,67.9407117 16.6844428,66.579103 15.3166718,65.2174943 C13.9489009,64.7636248 13.4929772,64.7636248 13.4929772,64.3097552 C13.4929772,63.4020161 14.8607482,63.4020161 15.3166718,63.4020161 C18.0522138,63.4020161 20.3318321,66.579103 21.2436795,67.9407117 C23.5232978,71.5716682 26.2588398,72.4794073 27.6266108,72.4794073 C29.4503054,72.4794073 30.8180764,72.0255377 31.7299237,71.5716682 C32.1858474,68.3945813 33.5536184,65.2174943 36.2891604,63.4020161 C25.8029161,61.1326683 18.0522138,55.232364 18.0522138,45.2472336 C18.0522138,40.2546685 20.3318321,35.2621033 23.5232978,31.6311468 C23.0673741,30.7234077 22.6114505,28.4540599 22.6114505,25.2769729 C22.6114505,23.4614947 22.6114505,20.7382773 23.9792215,18.01506 C23.9792215,18.01506 30.3621527,18.01506 36.745084,23.9153643 C39.0247024,23.0076251 42.216168,22.5537556 45.4076336,22.5537556 C48.5990993,22.5537556 51.7905649,23.0076251 54.5261069,23.9153643 C60.4531145,18.01506 67.2919695,18.01506 67.2919695,18.01506 C68.2038168,20.7382773 68.2038168,23.4614947 68.2038168,25.2769729 C68.2038168,28.9079294 67.7478932,30.7234077 67.2919695,31.6311468 C70.4834351,35.2621033 72.7630535,39.8007989 72.7630535,45.2472336 C72.7630535,55.232364 65.0123512,61.1326683 54.5261069,63.4020161 C57.2616489,65.6713639 59.0853435,69.7561899 59.0853435,73.841016 L59.0853435,85.6416246 C59.0853435,87.0032333 60.4531145,88.3648419 62.2768092,87.9109724 C79.1459847,81.102929 91,64.7636248 91,45.7011032 C91,18.4689295 67.7478932,-2.86293985 40.3924733,0.314147075 Z" id="Path"></path>
                </g>
            </g>
        </g>
    </g>
</svg>