<?xml version="1.0" encoding="UTF-8"?>
<svg width="136px" height="136px" viewBox="0 0 136 136" version="1.1" xmlns="http://www.w3.org/2000/svg" xmlns:xlink="http://www.w3.org/1999/xlink">
    <title>insta</title>
    <g id="portfolio" stroke="none" stroke-width="1" fill="none" fill-rule="evenodd">
        <g id="Artboard" transform="translate(-252.000000, -630.000000)" fill="#00FFCA" fill-rule="nonzero">
            <g id="insta" transform="translate(252.000000, 630.000000)">
                <path d="M39.9886364,0 C18.0383538,0 0,18.0142076 0,39.9886364 L0,96.0113636 C0,117.961646 18.0142076,136 39.9886364,136 L96.0113636,136 C117.961646,136 136,117.985799 136,96.0113636 L136,39.9886364 C136,18.0383538 117.985799,0 96.0113636,0 L39.9886364,0 Z M39.9886364,12.3636364 L96.0113636,12.3636364 C111.296873,12.3636364 123.636364,24.7031265 123.636364,39.9886364 L123.636364,96.0113636 C123.636364,111.296873 111.296873,123.636364 96.0113636,123.636364 L39.9886364,123.636364 C24.7031265,123.636364 12.3636364,111.296873 12.3636364,96.0113636 L12.3636364,39.9886364 C12.3636364,24.7031265 24.7031265,12.3636364 39.9886364,12.3636364 Z M104.511364,25.8863636 C101.396308,25.8863636 98.9090909,28.3735811 98.9090909,31.4886364 C98.9090909,34.6036916 101.396308,37.0909091 104.511364,37.0909091 C107.626419,37.0909091 110.113636,34.6036916 110.113636,31.4886364 C110.113636,28.3735811 107.626419,25.8863636 104.511364,25.8863636 Z M68,30.9090909 C47.595172,30.9090909 30.9090909,47.595172 30.9090909,68 C30.9090909,88.404828 47.595172,105.090909 68,105.090909 C88.404828,105.090909 105.090909,88.404828 105.090909,68 C105.090909,47.595172 88.404828,30.9090909 68,30.9090909 Z M68,43.2727273 C81.7400553,43.2727273 92.7272727,54.2599447 92.7272727,68 C92.7272727,81.7400553 81.7400553,92.7272727 68,92.7272727 C54.2599447,92.7272727 43.2727273,81.7400553 43.2727273,68 C43.2727273,54.2599447 54.2599447,43.2727273 68,43.2727273 Z" id="Shape"></path>
            </g>
        </g>
    </g>
</svg>