<?xml version="1.0" encoding="UTF-8"?>
<svg width="145px" height="145px" viewBox="0 0 145 145" version="1.1" xmlns="http://www.w3.org/2000/svg" xmlns:xlink="http://www.w3.org/1999/xlink">
    <title>js</title>
    <g id="portfolio" stroke="none" stroke-width="1" fill="none" fill-rule="evenodd">
        <g id="Artboard" transform="translate(-1093.000000, -621.000000)" fill="#00FFCA" fill-rule="nonzero">
            <g id="js" transform="translate(1093.000000, 621.000000)">
                <path d="M135.802643,0 L9.21084536,0 C4.12667583,0 0,4.12667583 0,9.21084536 L0,135.789155 C0,140.873328 4.12667583,145 9.21084536,145 L135.789155,145 C140.873328,145 145,140.873328 145,135.802643 L145,9.21084536 C145,4.12667583 140.873328,0 135.802643,0 Z M79.4047619,111.110027 C79.4047619,124.906066 71.313244,131.190476 59.499628,131.190476 C48.8188244,131.190476 41.1183957,124.029482 37.9761905,117.380952 L48.8323094,110.813336 C50.922619,114.521949 54.1052827,117.380952 58.6904762,117.380952 C63.0733808,117.380952 65.5952381,115.668247 65.5952381,109.006232 L65.5952381,65.5952381 L79.4047619,65.5952381 L79.4047619,111.110027 Z M109.356863,131.190476 C97.1251877,131.190476 90.1799674,125.027438 86.3095238,117.380952 L96.6666667,110.47619 C99.4852112,115.088357 102.559988,119.498232 109.060176,119.498232 C114.521949,119.498232 117.380952,116.774089 117.380952,112.998048 C117.380952,108.493768 114.414062,106.888953 108.412854,104.259208 L105.122304,102.843194 C95.6147711,98.7974348 89.2898987,93.7267502 89.2898987,82.9920032 C89.2898987,73.1203514 96.828497,65.5952381 108.58817,65.5952381 C116.96289,65.5952381 122.977586,68.5081845 127.320033,76.1411848 L117.070777,82.735771 C114.805152,78.676527 112.377696,77.0851935 108.58817,77.0851935 C104.731215,77.0851935 102.290271,79.5396223 102.290271,82.735771 C102.290271,86.687128 104.731215,88.2784615 110.381789,90.7328869 L113.672339,92.1489017 C124.879092,96.9363839 131.190476,101.831753 131.190476,112.836217 C131.190476,124.690292 121.871744,131.190476 109.356863,131.190476 Z" id="Shape"></path>
            </g>
        </g>
    </g>
</svg>