<?xml version="1.0" encoding="UTF-8"?>
<svg width="313px" height="124px" viewBox="0 0 313 124" version="1.1" xmlns="http://www.w3.org/2000/svg" xmlns:xlink="http://www.w3.org/1999/xlink">
    <title>nodejs</title>
    <g id="portfolio" stroke="none" stroke-width="1" fill="none" fill-rule="evenodd">
        <g id="Artboard" transform="translate(-580.000000, -642.000000)" fill="#00FFCA" fill-rule="nonzero">
            <g id="nodejs" transform="translate(580.000000, 642.000000)">
                <path d="M111.956775,46.4939691 L79.9379635,64.1403662 C78.7373397,64.7968252 78,66.0187488 78,67.3381664 L78,102.650459 C78,103.969877 78.7373397,105.185301 79.9379635,105.848259 L111.9633,123.507656 C113.157399,124.164115 114.638603,124.164115 115.832702,123.507656 L147.851514,105.848259 C149.039087,105.185301 149.776427,103.969877 149.776427,102.650459 L149.776427,67.3381664 C149.776427,66.0187488 149.039087,64.8033248 147.838463,64.1403662 L115.826177,46.4939691 C115.225865,46.1624898 114.553777,46 113.888213,46 C113.216125,46 112.550562,46.1624898 111.95025,46.4939691 M276.696725,78.2834823 L271.359169,81.2212987 C271.15689,81.3317918 271.039437,81.5332792 271.039437,81.7542654 L271.039437,87.6428973 C271.039437,87.8638835 271.163415,88.0653709 271.359169,88.175864 L276.696725,91.12018 C276.899004,91.2306731 277.140434,91.2306731 277.342713,91.12018 L282.680269,88.175864 C282.876023,88.0653709 283,87.8638835 283,87.6428973 L283,81.7542654 C283,81.5332792 282.876023,81.3317918 282.673744,81.2212987 L277.336187,78.2834823 C277.23831,78.2249859 277.127383,78.1989876 277.016456,78.1989876 C276.905529,78.1989876 276.794602,78.2249859 276.696725,78.2834823" id="Shape"></path>
                <path d="M233.370182,8.90060304 L217.733091,0.200803142 C217.242182,-0.0733090834 216.64,-0.0667826019 216.155636,0.220382586 C215.671273,0.507547774 215.370182,1.02313982 215.370182,1.58441723 L215.363636,54.1356467 L200.944,46.1798656 C200.341818,45.8470151 199.667636,45.683853 199,45.683853 C198.332364,45.683853 197.658182,45.8470151 197.056,46.1798656 L197.062545,46.1798656 L164.944,63.899263 C163.739636,64.5584377 163,65.7854162 163,67.1037655 L163,102.56214 C163,103.887015 163.739636,105.107468 164.944,105.773169 L197.069091,123.505619 C198.266909,124.164794 199.752727,124.164794 200.950545,123.505619 L233.069091,105.773169 C234.260364,105.113994 235,103.887015 235,102.56214 L235,11.6678312 C235,10.5191705 234.371636,9.46188046 233.370182,8.90060304 Z M214.486545,94.3583524 L199.890182,102.418557 C199.346909,102.718775 198.672727,102.718775 198.129455,102.418557 L183.526545,94.3583524 C182.970182,94.0581343 182.636364,93.4968569 182.636364,92.8964206 L182.636364,76.7760111 C182.636364,76.1755748 182.970182,75.6208239 183.52,75.3140793 L198.122909,67.260401 L198.116364,67.260401 C198.391273,67.110292 198.692364,67.0385007 199,67.0385007 C199.307636,67.0385007 199.608727,67.1168185 199.883636,67.260401 L214.48,75.3140793 C215.029818,75.6208239 215.363636,76.1821013 215.363636,76.7825376 L215.363636,92.902947 C215.363636,93.4968569 215.029818,94.0581343 214.486545,94.3583524 Z" id="Shape"></path>
                <path d="M112.062545,46.4939691 L78,102.650459 C78,103.969877 78.7396364,105.185301 79.944,105.848259 L112.069091,123.507656 C113.266909,124.164115 114.752727,124.164115 115.950545,123.507656 L150,67.3381664 C150,66.0187488 149.260364,64.8033248 148.056,64.1403662 L115.944,46.4939691 C115.341818,46.1624898 114.667636,46 114,46 C113.325818,46 112.658182,46.1624898 112.056,46.4939691" id="Path"></path>
                <path d="M112.062545,46.4939691 L79.944,64.1403662 C78.7396364,64.7968252 78,66.0187488 78,67.3381664 L112.062545,123.507656 C113.260364,124.164115 114.746182,124.164115 115.944,123.507656 L148.062545,105.848259 C149.260364,105.185301 150,103.969877 150,102.650459 L115.944,46.4939691 C115.341818,46.1624898 114.667636,46 114,46 C113.325818,46 112.658182,46.1624898 112.056,46.4939691" id="Path"></path>
                <path d="M311.063312,64.1392326 L279.072104,46.4939383 C278.472187,46.1624797 277.800542,46 277.135417,46 C276.470292,46 275.798646,46.1624797 275.198729,46.4939383 L275.20525,46.4939383 L243.207521,64.1392326 C242.014208,64.7956505 241.270833,66.0434946 241.270833,67.408324 L241.270833,102.575428 C241.270833,103.933758 242.014208,105.188101 243.207521,105.844519 L275.211771,123.502812 C276.411604,124.165729 277.878792,124.165729 279.078625,123.502812 L293.835271,115.35933 C295.185083,114.611924 295.178562,112.681665 293.822229,111.940757 L261.713646,94.4774403 C261.172417,94.1719785 260.833333,93.6065492 260.833333,92.9956255 L260.833333,76.9686289 C260.833333,76.3707037 261.159375,75.8182727 261.681042,75.5323085 L276.255104,67.4993126 L276.248583,67.4993126 C276.522458,67.3498313 276.822417,67.2783402 277.128896,67.2783402 C277.435375,67.2783402 277.735333,67.3563305 278.009208,67.4993126 L292.583271,75.5388076 C293.104937,75.8247719 293.430979,76.3772028 293.430979,76.9751281 L293.430979,90.0514936 C293.430979,90.6104237 293.730937,91.1303587 294.22,91.4098238 C294.709062,91.6827897 295.308979,91.6827897 295.798042,91.4033246 L311.435,82.3499563 C312.400083,81.7910261 313,80.7576553 313,79.639795 L313,67.4213223 C313,66.0499938 312.256625,64.7956505 311.063312,64.1392326 Z M69.7924792,64.1392326 L37.8012708,46.4939383 C37.2013542,46.1624797 36.5297083,46 35.8645833,46 C35.1994583,46 34.5278125,46.1624797 33.9278958,46.4939383 L33.9344167,46.4939383 L1.9366875,64.1392326 C0.743375,64.7956505 0,66.0434946 0,67.408324 L0,115.924759 C0,116.48369 0.299958333,117.003625 0.789020833,117.28309 C1.27808333,117.556055 1.878,117.556055 2.3670625,117.27659 L18.0040208,108.223222 C18.9691042,107.664292 19.5625,106.630921 19.5625,105.513061 L19.5625,76.9621297 C19.5625,76.3642045 19.8885417,75.8117735 20.4102083,75.5258093 L34.9842708,67.4928134 L34.9842708,67.4928134 C35.2581458,67.3433321 35.5581042,67.271841 35.8645833,67.271841 C36.1710625,67.271841 36.4710208,67.3498313 36.7448958,67.4928134 L51.3189583,75.5323085 C51.840625,75.8182727 52.1666667,76.3707037 52.1666667,76.9686289 L52.1666667,105.51956 C52.1666667,106.63742 52.7600625,107.670791 53.7316667,108.229721 L69.368625,117.28309 C69.8576875,117.562555 70.4576042,117.562555 70.9466667,117.289589 C71.4292083,117.003625 71.7291667,116.48369 71.7291667,115.924759 L71.7291667,67.4148231 C71.7291667,66.0499938 70.9857917,64.7956505 69.7924792,64.1392326 Z" id="Shape"></path>
            </g>
        </g>
    </g>
</svg>