<?xml version="1.0" encoding="UTF-8"?>
<svg width="151px" height="135px" viewBox="0 0 151 135" version="1.1" xmlns="http://www.w3.org/2000/svg" xmlns:xlink="http://www.w3.org/1999/xlink">
    <title>react</title>
    <g id="portfolio" stroke="none" stroke-width="1" fill="none" fill-rule="evenodd">
        <g id="Artboard" transform="translate(-63.000000, -631.000000)" fill="#00FFCA" fill-rule="nonzero">
            <g id="react" transform="translate(63.000000, 631.000000)">
                <path d="M75.5,100 C33.1543478,100 0,85.7 0,67.5 C0,49.3 33.1543478,35 75.5,35 C117.845652,35 151,49.3 151,67.5 C151,85.7 117.845652,100 75.5,100 Z M75.5,41.5 C34.1391304,41.5 6.56521739,54.825 6.56521739,67.5 C6.56521739,80.175 34.1391304,93.5 75.5,93.5 C116.86087,93.5 144.434783,80.175 144.434783,67.5 C144.434783,54.825 116.86087,41.5 75.5,41.5 Z" id="Shape"></path>
                <path d="M46.3582715,135 C43.0659891,135 40.4321631,134.348643 37.7983371,132.720251 C21.6661529,123.601256 25.9461201,88.1023099 47.016728,51.6263287 L47.016728,51.6263287 C56.8935755,34.6910518 69.0750207,20.361202 80.9272377,11.2422067 C93.7671394,1.47185461 105.290128,-1.45925102 113.191606,3.10024663 C121.422312,7.65974427 124.385366,19.0584884 122.409997,35.0167302 C120.434627,49.9979367 113.850063,67.5845705 103.973215,84.5198475 C94.0963676,101.455124 81.9149224,115.784974 70.0627055,124.903969 C61.502771,131.417538 53.2720648,135 46.3582715,135 Z M104.9609,7.33406587 C99.6932478,7.33406587 92.7794546,10.2651715 85.2072049,16.1273828 C74.0134444,24.9206997 62.4904557,38.5991926 52.9428365,54.8831128 L52.9428365,54.8831128 C32.2014569,90.3820587 30.2260874,120.995829 41.0906196,127.183718 C46.6874998,130.440502 55.9058908,127.509397 66.1119665,119.693115 C77.3057269,110.899798 88.8287156,97.2213052 98.3763348,80.937385 C107.923954,64.6534649 114.179291,48.0438663 116.15466,34.0396949 C117.800802,21.0125588 115.825432,11.8935635 110.228552,8.63677948 C108.582411,7.98542268 106.936269,7.33406587 104.9609,7.33406587 Z" id="Shape"></path>
                <path d="M104.915991,135 C88.5294749,135 64.9328921,114.987314 47.235455,83.8200152 C25.9329844,47.0754106 21.6724903,11.3150366 37.7312758,2.1288855 L37.7312758,2.1288855 C53.7900613,-7.05726563 82.6303292,14.2677281 103.9328,51.0123326 C113.764709,68.0723275 120.319316,85.7884761 122.285698,100.88001 C124.57981,116.955775 121.302507,128.110387 113.109249,133.031539 C110.487406,134.343846 107.865564,135 104.915991,135 Z M41.008579,7.70619154 C30.1934785,13.9396512 32.1598604,44.7788729 52.8068704,80.5392469 C73.4538803,116.299621 99.0168451,133.359616 109.831946,127.126156 C115.403361,123.845388 117.369743,114.659237 115.731091,101.536164 C113.764709,87.4288602 107.537833,70.6969421 98.0336541,54.2931008 C77.3866441,18.5327268 51.8236794,1.47273185 41.008579,7.70619154 L41.008579,7.70619154 Z" id="Shape"></path>
                <circle id="Oval" cx="75.5" cy="67.5" r="13.5"></circle>
            </g>
        </g>
    </g>
</svg>