<?xml version="1.0" encoding="UTF-8"?>
<svg width="157px" height="145px" viewBox="0 0 157 145" version="1.1" xmlns="http://www.w3.org/2000/svg" xmlns:xlink="http://www.w3.org/1999/xlink">
    <title>sketch</title>
    <g id="portfolio" stroke="none" stroke-width="1" fill="none" fill-rule="evenodd">
        <g id="Artboard" transform="translate(-1719.000000, -621.000000)" fill="#00FFCA" fill-rule="nonzero">
            <g id="sketch" transform="translate(1719.000000, 621.000000)">
                <path d="M78.5057778,0 L33.7410763,6.38009225 L0,53.5558591 L78.5057778,145 L157,53.5558591 L123.258924,6.38009225 L78.5057778,0 Z M63.5418408,14.0638928 L44.2100537,36.1230923 L45.5504556,16.6366963 L63.5418408,14.0638928 Z M93.4697148,14.0638928 L111.4611,16.6251593 L112.801502,36.1230923 L93.4697148,14.0638928 Z M78.5057778,14.9407223 L106.885258,47.3142113 L50.1262972,47.3142113 L78.5057778,14.9407223 Z M32.9206595,27.8624284 L31.568705,47.3142113 L19.0082432,47.3142113 L32.9206595,27.8624284 Z M124.090895,27.8739661 L138.003315,47.3142113 L125.442852,47.3142113 L124.090895,27.8739661 Z M20.3833071,59.1283426 L33.4406417,59.1283426 L51.7209083,95.6437019 L20.3833071,59.1283426 Z M46.6713057,59.1283426 L110.34025,59.1283426 L78.5057778,122.71006 L46.6713057,59.1283426 Z M123.570917,59.1283426 L136.62825,59.1283426 L105.290647,95.6437019 L123.570917,59.1283426 Z" id="Shape"></path>
            </g>
        </g>
    </g>
</svg>