<?xml version="1.0" encoding="UTF-8"?>
<svg width="145px" height="145px" viewBox="0 0 145 145" version="1.1" xmlns="http://www.w3.org/2000/svg" xmlns:xlink="http://www.w3.org/1999/xlink">
    <title>ts</title>
    <g id="portfolio" stroke="none" stroke-width="1" fill="none" fill-rule="evenodd">
        <g id="Artboard" transform="translate(-1314.000000, -621.000000)" fill="#00FFCA" fill-rule="nonzero">
            <g id="ts" transform="translate(1314.000000, 621.000000)">
                <path d="M141.547619,0 L3.45238095,0 C1.54321429,0 0,1.54666667 0,3.45238095 L0,141.547619 C0,143.453333 1.54321429,145 3.45238095,145 L141.547619,145 C143.456786,145 145,143.453333 145,141.547619 L145,3.45238095 C145,1.54666667 143.456786,0 141.547619,0 Z M86.3095238,77.4886905 L69.047619,77.4886905 L69.047619,131.190476 L55.2380952,131.190476 L55.2380952,77.4886905 L37.9761905,77.4886905 L37.9761905,65.5952381 L86.3095238,65.5952381 L86.3095238,77.4886905 Z M90.1796429,128.124762 L90.1796429,113.769762 C90.1796429,113.769762 98.02,119.680238 107.427738,119.680238 C116.835476,119.680238 116.472976,113.528095 116.472976,112.685714 C116.472976,103.757857 89.8171429,103.757857 89.8171429,83.9791667 C89.8171429,57.0816667 128.656429,67.6942857 128.656429,67.6942857 L128.173095,80.4819048 C128.173095,80.4819048 121.658452,76.1388095 114.301429,76.1388095 C106.944405,76.1388095 104.289524,79.6360714 104.289524,83.375 C104.289524,93.0244048 131.187024,92.0611905 131.187024,111.480833 C131.190476,141.392262 90.1796429,128.124762 90.1796429,128.124762 Z" id="Shape"></path>
            </g>
        </g>
    </g>
</svg>